<mxfile host="Electron" modified="2023-11-05T10:48:44.302Z" agent="Mozilla/5.0 (Windows NT 10.0; Win64; x64) AppleWebKit/537.36 (KHTML, like Gecko) draw.io/21.6.1 Chrome/112.0.5615.204 Electron/24.6.1 Safari/537.36" etag="ovN2iv8HiMRlBevNDVDL" version="21.6.1" type="device">
  <diagram name="第 1 页" id="cCnDmLK2RqyCovlwAU6Z">
    <mxGraphModel dx="4383" dy="3604" grid="1" gridSize="10" guides="1" tooltips="1" connect="1" arrows="1" fold="1" page="1" pageScale="1" pageWidth="827" pageHeight="1169" math="0" shadow="0">
      <root>
        <mxCell id="0" />
        <mxCell id="1" parent="0" />
        <mxCell id="8u9ufh7_MEULoS_vxXox-172" value="" style="group;labelBorderColor=none;fontColor=#000000;" vertex="1" connectable="0" parent="1">
          <mxGeometry x="-550" y="2460" width="1280" height="840" as="geometry" />
        </mxCell>
        <mxCell id="8u9ufh7_MEULoS_vxXox-167" value="" style="endArrow=none;dashed=1;html=1;rounded=0;strokeWidth=9;movable=1;resizable=1;rotatable=1;deletable=1;editable=1;locked=0;connectable=1;labelBorderColor=none;fontColor=#000000;" edge="1" parent="8u9ufh7_MEULoS_vxXox-172">
          <mxGeometry width="50" height="50" relative="1" as="geometry">
            <mxPoint as="sourcePoint" />
            <mxPoint x="1275.3488372093022" as="targetPoint" />
          </mxGeometry>
        </mxCell>
        <mxCell id="8u9ufh7_MEULoS_vxXox-168" value="" style="endArrow=none;dashed=1;html=1;rounded=0;strokeWidth=9;movable=1;resizable=1;rotatable=1;deletable=1;editable=1;locked=0;connectable=1;labelBorderColor=none;fontColor=#000000;" edge="1" parent="8u9ufh7_MEULoS_vxXox-172">
          <mxGeometry width="50" height="50" relative="1" as="geometry">
            <mxPoint y="280" as="sourcePoint" />
            <mxPoint x="1275.3488372093022" y="280" as="targetPoint" />
          </mxGeometry>
        </mxCell>
        <mxCell id="8u9ufh7_MEULoS_vxXox-169" value="" style="endArrow=none;dashed=1;html=1;rounded=0;strokeWidth=9;movable=1;resizable=1;rotatable=1;deletable=1;editable=1;locked=0;connectable=1;labelBorderColor=none;fontColor=#000000;" edge="1" parent="8u9ufh7_MEULoS_vxXox-172">
          <mxGeometry x="-0.117" y="160" width="50" height="50" relative="1" as="geometry">
            <mxPoint y="560" as="sourcePoint" />
            <mxPoint x="1275.3488372093022" y="560" as="targetPoint" />
            <mxPoint as="offset" />
          </mxGeometry>
        </mxCell>
        <mxCell id="8u9ufh7_MEULoS_vxXox-170" value="" style="endArrow=none;dashed=1;html=1;rounded=0;strokeWidth=9;movable=1;resizable=1;rotatable=1;deletable=1;editable=1;locked=0;connectable=1;labelBorderColor=none;fontColor=#000000;" edge="1" parent="8u9ufh7_MEULoS_vxXox-172">
          <mxGeometry width="50" height="50" relative="1" as="geometry">
            <mxPoint y="840" as="sourcePoint" />
            <mxPoint x="1280" y="840" as="targetPoint" />
          </mxGeometry>
        </mxCell>
        <mxCell id="8u9ufh7_MEULoS_vxXox-171" value="" style="endArrow=none;dashed=1;html=1;rounded=0;exitX=1;exitY=1;exitDx=0;exitDy=0;strokeWidth=10;movable=1;resizable=1;rotatable=1;deletable=1;editable=1;locked=0;connectable=1;labelBorderColor=none;fontColor=#000000;" edge="1" parent="8u9ufh7_MEULoS_vxXox-172">
          <mxGeometry width="50" height="50" relative="1" as="geometry">
            <mxPoint y="760" as="sourcePoint" />
            <mxPoint x="1280" y="760" as="targetPoint" />
          </mxGeometry>
        </mxCell>
        <mxCell id="8u9ufh7_MEULoS_vxXox-151" value="A1" style="rounded=0;whiteSpace=wrap;html=1;fontSize=40;movable=1;resizable=1;rotatable=1;deletable=1;editable=1;locked=0;connectable=1;container=0;labelBorderColor=none;fontColor=#000000;" vertex="1" parent="8u9ufh7_MEULoS_vxXox-172">
          <mxGeometry x="270" y="540" width="60.45" height="120" as="geometry" />
        </mxCell>
        <mxCell id="8u9ufh7_MEULoS_vxXox-152" value="LLother" style="rounded=0;whiteSpace=wrap;html=1;fontSize=40;movable=1;resizable=1;rotatable=1;deletable=1;editable=1;locked=0;connectable=1;container=0;labelBorderColor=none;fontColor=#000000;" vertex="1" parent="8u9ufh7_MEULoS_vxXox-172">
          <mxGeometry x="370.00147902869776" y="650" width="193.92494481236204" height="60" as="geometry" />
        </mxCell>
        <mxCell id="8u9ufh7_MEULoS_vxXox-150" style="edgeStyle=orthogonalEdgeStyle;rounded=0;orthogonalLoop=1;jettySize=auto;html=1;exitX=0.5;exitY=1;exitDx=0;exitDy=0;entryX=0;entryY=0.5;entryDx=0;entryDy=0;strokeWidth=5;labelBorderColor=none;fontColor=#000000;" edge="1" parent="8u9ufh7_MEULoS_vxXox-172" source="8u9ufh7_MEULoS_vxXox-151" target="8u9ufh7_MEULoS_vxXox-152">
          <mxGeometry relative="1" as="geometry" />
        </mxCell>
        <mxCell id="X6zUUjQ-Mcst8cZV5Myz-4" value="" style="group;labelBorderColor=none;fontColor=#000000;" parent="1" vertex="1" connectable="0">
          <mxGeometry x="50" y="390" width="1580" height="840" as="geometry" />
        </mxCell>
        <mxCell id="xXMWLbv-2RCKO_A-8Q97-3" value="Middle" style="rounded=0;whiteSpace=wrap;html=1;fontSize=58;horizontal=0;movable=1;resizable=1;rotatable=1;deletable=1;editable=1;locked=0;connectable=1;container=0;labelBorderColor=none;fontColor=#000000;" parent="X6zUUjQ-Mcst8cZV5Myz-4" vertex="1">
          <mxGeometry y="280" width="158" height="280" as="geometry" />
        </mxCell>
        <mxCell id="xXMWLbv-2RCKO_A-8Q97-4" value="Surface" style="rounded=0;whiteSpace=wrap;fontSize=58;horizontal=0;movable=1;resizable=1;rotatable=1;deletable=1;editable=1;locked=0;connectable=1;container=0;labelBorderColor=none;fontColor=#000000;" parent="X6zUUjQ-Mcst8cZV5Myz-4" vertex="1">
          <mxGeometry width="158" height="280" as="geometry" />
        </mxCell>
        <mxCell id="xXMWLbv-2RCKO_A-8Q97-5" value="Deep" style="rounded=0;whiteSpace=wrap;fontSize=58;horizontal=0;movable=1;resizable=1;rotatable=1;deletable=1;editable=1;locked=0;connectable=1;container=0;labelBorderColor=none;fontColor=#000000;" parent="X6zUUjQ-Mcst8cZV5Myz-4" vertex="1">
          <mxGeometry y="560" width="158" height="200" as="geometry" />
        </mxCell>
        <mxCell id="xXMWLbv-2RCKO_A-8Q97-19" value="sediment" style="rounded=0;whiteSpace=wrap;fontSize=24;horizontal=1;movable=1;resizable=1;rotatable=1;deletable=1;editable=1;locked=0;connectable=1;container=0;labelBorderColor=none;fontColor=#000000;" parent="X6zUUjQ-Mcst8cZV5Myz-4" vertex="1">
          <mxGeometry y="760" width="158" height="80" as="geometry" />
        </mxCell>
        <mxCell id="xXMWLbv-2RCKO_A-8Q97-6" value="" style="endArrow=none;dashed=1;html=1;rounded=0;strokeWidth=9;movable=1;resizable=1;rotatable=1;deletable=1;editable=1;locked=0;connectable=1;labelBorderColor=none;fontColor=#000000;" parent="X6zUUjQ-Mcst8cZV5Myz-4" edge="1">
          <mxGeometry width="50" height="50" relative="1" as="geometry">
            <mxPoint x="158" as="sourcePoint" />
            <mxPoint x="1566.8333333333333" as="targetPoint" />
          </mxGeometry>
        </mxCell>
        <mxCell id="xXMWLbv-2RCKO_A-8Q97-1" value="" style="endArrow=none;dashed=1;html=1;rounded=0;strokeWidth=9;movable=1;resizable=1;rotatable=1;deletable=1;editable=1;locked=0;connectable=1;labelBorderColor=none;fontColor=#000000;" parent="X6zUUjQ-Mcst8cZV5Myz-4" edge="1">
          <mxGeometry width="50" height="50" relative="1" as="geometry">
            <mxPoint x="158" y="280" as="sourcePoint" />
            <mxPoint x="1566.8333333333333" y="280" as="targetPoint" />
          </mxGeometry>
        </mxCell>
        <mxCell id="xXMWLbv-2RCKO_A-8Q97-2" value="" style="endArrow=none;dashed=1;html=1;rounded=0;strokeWidth=9;movable=1;resizable=1;rotatable=1;deletable=1;editable=1;locked=0;connectable=1;labelBorderColor=none;fontColor=#000000;" parent="X6zUUjQ-Mcst8cZV5Myz-4" edge="1">
          <mxGeometry width="50" height="50" relative="1" as="geometry">
            <mxPoint x="158" y="560" as="sourcePoint" />
            <mxPoint x="1566.8333333333333" y="560" as="targetPoint" />
          </mxGeometry>
        </mxCell>
        <mxCell id="xXMWLbv-2RCKO_A-8Q97-7" value="" style="endArrow=none;dashed=1;html=1;rounded=0;strokeWidth=9;movable=1;resizable=1;rotatable=1;deletable=1;editable=1;locked=0;connectable=1;labelBorderColor=none;fontColor=#000000;" parent="X6zUUjQ-Mcst8cZV5Myz-4" edge="1">
          <mxGeometry width="50" height="50" relative="1" as="geometry">
            <mxPoint x="158" y="840" as="sourcePoint" />
            <mxPoint x="1566.8333333333333" y="840" as="targetPoint" />
          </mxGeometry>
        </mxCell>
        <mxCell id="xXMWLbv-2RCKO_A-8Q97-8" value="" style="endArrow=none;html=1;rounded=0;fontSize=20;strokeWidth=20;movable=1;resizable=1;rotatable=1;deletable=1;editable=1;locked=0;connectable=1;labelBorderColor=none;fontColor=#000000;" parent="X6zUUjQ-Mcst8cZV5Myz-4" edge="1">
          <mxGeometry width="50" height="50" relative="1" as="geometry">
            <mxPoint x="1559.069133990821" y="840" as="sourcePoint" />
            <mxPoint x="1559.069133990821" as="targetPoint" />
          </mxGeometry>
        </mxCell>
        <mxCell id="xXMWLbv-2RCKO_A-8Q97-23" value="" style="endArrow=none;dashed=1;html=1;rounded=0;exitX=1;exitY=1;exitDx=0;exitDy=0;strokeWidth=10;movable=1;resizable=1;rotatable=1;deletable=1;editable=1;locked=0;connectable=1;labelBorderColor=none;fontColor=#000000;" parent="X6zUUjQ-Mcst8cZV5Myz-4" source="xXMWLbv-2RCKO_A-8Q97-5" edge="1">
          <mxGeometry width="50" height="50" relative="1" as="geometry">
            <mxPoint x="355.49999999999994" y="760" as="sourcePoint" />
            <mxPoint x="1579.9999999999998" y="760" as="targetPoint" />
          </mxGeometry>
        </mxCell>
        <mxCell id="xXMWLbv-2RCKO_A-8Q97-15" value="AMZ" style="rounded=0;whiteSpace=wrap;html=1;fontSize=40;movable=1;resizable=1;rotatable=1;deletable=1;editable=1;locked=0;connectable=1;container=0;labelBorderColor=none;fontColor=#000000;" parent="X6zUUjQ-Mcst8cZV5Myz-4" vertex="1">
          <mxGeometry x="177.8842825607064" y="770" width="145.44370860927154" height="60" as="geometry" />
        </mxCell>
        <mxCell id="xXMWLbv-2RCKO_A-8Q97-13" value="LLIV" style="rounded=0;whiteSpace=wrap;html=1;fontSize=40;movable=1;resizable=1;rotatable=1;deletable=1;editable=1;locked=0;connectable=1;container=0;labelBorderColor=none;fontColor=#000000;" parent="X6zUUjQ-Mcst8cZV5Myz-4" vertex="1">
          <mxGeometry x="177.8842825607064" y="660" width="145.44370860927154" height="60" as="geometry" />
        </mxCell>
        <mxCell id="8u9ufh7_MEULoS_vxXox-4" style="edgeStyle=orthogonalEdgeStyle;rounded=0;orthogonalLoop=1;jettySize=auto;html=1;exitX=0.5;exitY=0;exitDx=0;exitDy=0;entryX=0;entryY=0.5;entryDx=0;entryDy=0;strokeWidth=5;labelBorderColor=none;fontColor=#000000;" edge="1" parent="X6zUUjQ-Mcst8cZV5Myz-4" source="xXMWLbv-2RCKO_A-8Q97-10" target="8u9ufh7_MEULoS_vxXox-2">
          <mxGeometry relative="1" as="geometry" />
        </mxCell>
        <mxCell id="8u9ufh7_MEULoS_vxXox-5" style="edgeStyle=orthogonalEdgeStyle;rounded=0;orthogonalLoop=1;jettySize=auto;html=1;exitX=1;exitY=0.75;exitDx=0;exitDy=0;entryX=0;entryY=0.5;entryDx=0;entryDy=0;strokeWidth=5;labelBorderColor=none;fontColor=#000000;" edge="1" parent="X6zUUjQ-Mcst8cZV5Myz-4" source="xXMWLbv-2RCKO_A-8Q97-10" target="xXMWLbv-2RCKO_A-8Q97-18">
          <mxGeometry relative="1" as="geometry" />
        </mxCell>
        <mxCell id="xXMWLbv-2RCKO_A-8Q97-10" value="&amp;nbsp;？" style="rounded=0;whiteSpace=wrap;html=1;fontSize=40;movable=1;resizable=1;rotatable=1;deletable=1;editable=1;locked=0;connectable=1;container=0;labelBorderColor=none;fontColor=#000000;" parent="X6zUUjQ-Mcst8cZV5Myz-4" vertex="1">
          <mxGeometry x="184" y="511" width="60.45" height="105" as="geometry" />
        </mxCell>
        <mxCell id="xXMWLbv-2RCKO_A-8Q97-29" value="&lt;font style=&quot;font-size: 30px;&quot;&gt;流线型化？&lt;/font&gt;" style="endArrow=classic;html=1;rounded=0;exitX=0.25;exitY=0;exitDx=0;exitDy=0;entryX=0.5;entryY=1;entryDx=0;entryDy=0;strokeWidth=5;movable=1;resizable=1;rotatable=1;deletable=1;editable=1;locked=0;connectable=1;labelBorderColor=none;fontColor=#000000;" parent="X6zUUjQ-Mcst8cZV5Myz-4" source="xXMWLbv-2RCKO_A-8Q97-13" target="xXMWLbv-2RCKO_A-8Q97-10" edge="1">
          <mxGeometry x="-0.0917" y="-36" width="50" height="50" relative="1" as="geometry">
            <mxPoint x="1195.9902428256073" y="160" as="sourcePoint" />
            <mxPoint x="1256.5917880794702" y="110" as="targetPoint" />
            <mxPoint as="offset" />
          </mxGeometry>
        </mxCell>
        <mxCell id="xXMWLbv-2RCKO_A-8Q97-18" value="LLother" style="rounded=0;whiteSpace=wrap;html=1;fontSize=40;movable=1;resizable=1;rotatable=1;deletable=1;editable=1;locked=0;connectable=1;container=0;labelBorderColor=none;fontColor=#000000;" parent="X6zUUjQ-Mcst8cZV5Myz-4" vertex="1">
          <mxGeometry x="323.3314790286978" y="560" width="193.92494481236204" height="60" as="geometry" />
        </mxCell>
        <mxCell id="xXMWLbv-2RCKO_A-8Q97-9" value="&amp;nbsp;？" style="rounded=0;whiteSpace=wrap;html=1;fontSize=40;movable=1;resizable=1;rotatable=1;deletable=1;editable=1;locked=0;connectable=1;container=0;labelBorderColor=none;fontColor=#000000;" parent="X6zUUjQ-Mcst8cZV5Myz-4" vertex="1">
          <mxGeometry x="589.9747902869759" y="170" width="72.72185430463577" height="60" as="geometry" />
        </mxCell>
        <mxCell id="xXMWLbv-2RCKO_A-8Q97-14" value="LLIILLIII" style="rounded=1;whiteSpace=wrap;html=1;fontSize=40;movable=1;resizable=1;rotatable=1;deletable=1;editable=1;locked=0;connectable=1;arcSize=50;fillColor=#008a00;fontColor=#000000;strokeColor=#005700;container=0;labelBorderColor=none;" parent="X6zUUjQ-Mcst8cZV5Myz-4" vertex="1">
          <mxGeometry x="589.9747902869759" y="370" width="206.0452538631347" height="60" as="geometry" />
        </mxCell>
        <mxCell id="xXMWLbv-2RCKO_A-8Q97-50" style="edgeStyle=orthogonalEdgeStyle;rounded=0;orthogonalLoop=1;jettySize=auto;html=1;exitX=0.5;exitY=0;exitDx=0;exitDy=0;entryX=0;entryY=0.5;entryDx=0;entryDy=0;fontSize=10;strokeWidth=5;movable=1;resizable=1;rotatable=1;deletable=1;editable=1;locked=0;connectable=1;labelBorderColor=none;fontColor=#000000;" parent="X6zUUjQ-Mcst8cZV5Myz-4" source="xXMWLbv-2RCKO_A-8Q97-48" target="xXMWLbv-2RCKO_A-8Q97-9" edge="1">
          <mxGeometry relative="1" as="geometry" />
        </mxCell>
        <mxCell id="xXMWLbv-2RCKO_A-8Q97-51" style="edgeStyle=orthogonalEdgeStyle;rounded=0;orthogonalLoop=1;jettySize=auto;html=1;exitX=0.5;exitY=1;exitDx=0;exitDy=0;entryX=0;entryY=0.5;entryDx=0;entryDy=0;fontSize=10;strokeWidth=5;movable=1;resizable=1;rotatable=1;deletable=1;editable=1;locked=0;connectable=1;labelBorderColor=none;fontColor=#000000;" parent="X6zUUjQ-Mcst8cZV5Myz-4" source="xXMWLbv-2RCKO_A-8Q97-48" target="xXMWLbv-2RCKO_A-8Q97-14" edge="1">
          <mxGeometry relative="1" as="geometry" />
        </mxCell>
        <mxCell id="xXMWLbv-2RCKO_A-8Q97-48" value="&amp;nbsp;？" style="rounded=0;whiteSpace=wrap;html=1;fontSize=40;align=center;movable=1;resizable=1;rotatable=1;deletable=1;editable=1;locked=0;connectable=1;container=0;labelBorderColor=none;fontColor=#000000;" parent="X6zUUjQ-Mcst8cZV5Myz-4" vertex="1">
          <mxGeometry x="493.0123178807948" y="240" width="60.601545253863144" height="110" as="geometry" />
        </mxCell>
        <mxCell id="xXMWLbv-2RCKO_A-8Q97-49" style="edgeStyle=orthogonalEdgeStyle;rounded=0;orthogonalLoop=1;jettySize=auto;html=1;exitX=1;exitY=0.5;exitDx=0;exitDy=0;entryX=0;entryY=0.5;entryDx=0;entryDy=0;fontSize=10;strokeWidth=5;movable=1;resizable=1;rotatable=1;deletable=1;editable=1;locked=0;connectable=1;labelBorderColor=none;fontColor=#000000;" parent="X6zUUjQ-Mcst8cZV5Myz-4" source="8u9ufh7_MEULoS_vxXox-2" target="xXMWLbv-2RCKO_A-8Q97-48" edge="1">
          <mxGeometry relative="1" as="geometry">
            <Array as="points">
              <mxPoint x="408" y="430" />
              <mxPoint x="408" y="295" />
            </Array>
          </mxGeometry>
        </mxCell>
        <mxCell id="xXMWLbv-2RCKO_A-8Q97-126" value="&lt;font style=&quot;font-size: 30px;&quot;&gt;流线型化？&lt;br&gt;&lt;/font&gt;" style="edgeLabel;html=1;align=center;verticalAlign=middle;resizable=0;points=[];container=0;labelBorderColor=none;fontColor=#000000;" parent="xXMWLbv-2RCKO_A-8Q97-49" vertex="1" connectable="0">
          <mxGeometry x="-0.0274" y="-1" relative="1" as="geometry">
            <mxPoint x="31" y="24" as="offset" />
          </mxGeometry>
        </mxCell>
        <mxCell id="xXMWLbv-2RCKO_A-8Q97-11" value="HLI" style="rounded=0;whiteSpace=wrap;html=1;fontSize=40;movable=1;resizable=1;rotatable=1;deletable=1;editable=1;locked=0;connectable=1;container=0;labelBorderColor=none;fontColor=#000000;" parent="X6zUUjQ-Mcst8cZV5Myz-4" vertex="1">
          <mxGeometry x="1044.4863796909497" y="120" width="145.44370860927154" height="60" as="geometry" />
        </mxCell>
        <mxCell id="xXMWLbv-2RCKO_A-8Q97-102" style="edgeStyle=orthogonalEdgeStyle;rounded=0;orthogonalLoop=1;jettySize=auto;html=1;exitX=0.5;exitY=0;exitDx=0;exitDy=0;entryX=0;entryY=0.5;entryDx=0;entryDy=0;strokeWidth=5;labelBorderColor=none;fontColor=#000000;" parent="X6zUUjQ-Mcst8cZV5Myz-4" source="xXMWLbv-2RCKO_A-8Q97-9" target="xXMWLbv-2RCKO_A-8Q97-11" edge="1">
          <mxGeometry relative="1" as="geometry">
            <mxPoint x="929.3434437086094" y="150" as="targetPoint" />
          </mxGeometry>
        </mxCell>
        <mxCell id="xXMWLbv-2RCKO_A-8Q97-95" value="HLIII-IV-V" style="rounded=1;whiteSpace=wrap;html=1;fontSize=40;movable=1;resizable=1;rotatable=1;deletable=1;editable=1;locked=0;connectable=1;arcSize=50;fillColor=#008a00;fontColor=#000000;strokeColor=#005700;container=0;labelBorderColor=none;" parent="X6zUUjQ-Mcst8cZV5Myz-4" vertex="1">
          <mxGeometry x="779.0516114790289" y="10" width="230.28587196467993" height="60" as="geometry" />
        </mxCell>
        <mxCell id="xXMWLbv-2RCKO_A-8Q97-103" style="edgeStyle=orthogonalEdgeStyle;rounded=0;orthogonalLoop=1;jettySize=auto;html=1;exitX=0.5;exitY=0;exitDx=0;exitDy=0;entryX=0;entryY=0.5;entryDx=0;entryDy=0;strokeWidth=5;labelBorderColor=none;fontColor=#000000;" parent="X6zUUjQ-Mcst8cZV5Myz-4" source="xXMWLbv-2RCKO_A-8Q97-9" target="xXMWLbv-2RCKO_A-8Q97-95" edge="1">
          <mxGeometry relative="1" as="geometry" />
        </mxCell>
        <mxCell id="xXMWLbv-2RCKO_A-8Q97-104" value="HLII" style="rounded=0;whiteSpace=wrap;html=1;fontSize=40;container=0;labelBorderColor=none;fontColor=#000000;" parent="X6zUUjQ-Mcst8cZV5Myz-4" vertex="1">
          <mxGeometry x="1288.1045916114792" y="10" width="145.44370860927154" height="60" as="geometry" />
        </mxCell>
        <mxCell id="xXMWLbv-2RCKO_A-8Q97-106" value="HLVI-HLVII" style="rounded=1;whiteSpace=wrap;html=1;fontSize=40;fillColor=#008a00;fontColor=#000000;strokeColor=#005700;arcSize=50;container=0;labelBorderColor=none;" parent="X6zUUjQ-Mcst8cZV5Myz-4" vertex="1">
          <mxGeometry x="1288.1049006622516" y="180" width="254.5264900662252" height="60" as="geometry" />
        </mxCell>
        <mxCell id="xXMWLbv-2RCKO_A-8Q97-110" value="" style="shape=flexArrow;endArrow=classic;html=1;rounded=0;exitX=0.5;exitY=1;exitDx=0;exitDy=0;fillColor=#a0522d;strokeColor=#6D1F00;strokeWidth=5;labelBorderColor=none;fontColor=#000000;" parent="X6zUUjQ-Mcst8cZV5Myz-4" source="xXMWLbv-2RCKO_A-8Q97-104" edge="1">
          <mxGeometry width="50" height="50" relative="1" as="geometry">
            <mxPoint x="1166.9015011037527" y="240" as="sourcePoint" />
            <mxPoint x="1360.9659602649008" y="180" as="targetPoint" />
          </mxGeometry>
        </mxCell>
        <mxCell id="xXMWLbv-2RCKO_A-8Q97-112" value="" style="shape=flexArrow;endArrow=classic;html=1;rounded=0;exitX=0;exitY=0.5;exitDx=0;exitDy=0;entryX=1;entryY=0.5;entryDx=0;entryDy=0;fillColor=#a0522d;strokeColor=#6D1F00;strokeWidth=5;labelBorderColor=none;fontColor=#000000;" parent="X6zUUjQ-Mcst8cZV5Myz-4" source="xXMWLbv-2RCKO_A-8Q97-104" target="xXMWLbv-2RCKO_A-8Q97-95" edge="1">
          <mxGeometry width="50" height="50" relative="1" as="geometry">
            <mxPoint x="1166.9015011037527" y="240" as="sourcePoint" />
            <mxPoint x="1227.5030463576159" y="190" as="targetPoint" />
            <Array as="points" />
          </mxGeometry>
        </mxCell>
        <mxCell id="xXMWLbv-2RCKO_A-8Q97-105" style="edgeStyle=orthogonalEdgeStyle;rounded=0;orthogonalLoop=1;jettySize=auto;html=1;exitX=1;exitY=0.5;exitDx=0;exitDy=0;entryX=0;entryY=0.5;entryDx=0;entryDy=0;labelBorderColor=none;fontColor=#000000;" parent="X6zUUjQ-Mcst8cZV5Myz-4" source="xXMWLbv-2RCKO_A-8Q97-11" target="xXMWLbv-2RCKO_A-8Q97-104" edge="1">
          <mxGeometry relative="1" as="geometry">
            <Array as="points">
              <mxPoint x="1251.7436644591614" y="150" />
              <mxPoint x="1251.7436644591614" y="40" />
            </Array>
          </mxGeometry>
        </mxCell>
        <mxCell id="xXMWLbv-2RCKO_A-8Q97-114" value="" style="shape=flexArrow;endArrow=classic;html=1;rounded=0;exitX=1;exitY=0.5;exitDx=0;exitDy=0;entryX=0.5;entryY=0;entryDx=0;entryDy=0;labelBorderColor=none;fontColor=#000000;" parent="X6zUUjQ-Mcst8cZV5Myz-4" source="xXMWLbv-2RCKO_A-8Q97-48" target="xXMWLbv-2RCKO_A-8Q97-14" edge="1">
          <mxGeometry width="50" height="50" relative="1" as="geometry">
            <mxPoint x="691.1793708609273" y="255" as="sourcePoint" />
            <mxPoint x="694.8154635761592" y="365" as="targetPoint" />
            <Array as="points">
              <mxPoint x="692.9974172185431" y="295" />
            </Array>
          </mxGeometry>
        </mxCell>
        <mxCell id="xXMWLbv-2RCKO_A-8Q97-115" value="" style="shape=flexArrow;endArrow=classic;html=1;rounded=0;exitX=1;exitY=0.5;exitDx=0;exitDy=0;entryX=0.5;entryY=0;entryDx=0;entryDy=0;strokeWidth=5;fillColor=#a0522d;strokeColor=#6D1F00;labelBorderColor=none;fontColor=#000000;" parent="X6zUUjQ-Mcst8cZV5Myz-4" source="xXMWLbv-2RCKO_A-8Q97-9" target="xXMWLbv-2RCKO_A-8Q97-14" edge="1">
          <mxGeometry width="50" height="50" relative="1" as="geometry">
            <mxPoint x="1269.9241280353203" y="90" as="sourcePoint" />
            <mxPoint x="1273.560220750552" y="200" as="targetPoint" />
            <Array as="points">
              <mxPoint x="692.9974172185431" y="200" />
            </Array>
          </mxGeometry>
        </mxCell>
        <mxCell id="xXMWLbv-2RCKO_A-8Q97-116" value="" style="shape=flexArrow;endArrow=classic;html=1;rounded=0;exitX=0.5;exitY=1;exitDx=0;exitDy=0;entryX=0.5;entryY=0;entryDx=0;entryDy=0;strokeWidth=5;fillColor=#a0522d;strokeColor=#6D1F00;labelBorderColor=none;fontColor=#000000;" parent="X6zUUjQ-Mcst8cZV5Myz-4" source="xXMWLbv-2RCKO_A-8Q97-14" target="xXMWLbv-2RCKO_A-8Q97-117" edge="1">
          <mxGeometry width="50" height="50" relative="1" as="geometry">
            <mxPoint x="677.8470309050775" y="550" as="sourcePoint" />
            <mxPoint x="692.9974172185431" y="650" as="targetPoint" />
            <Array as="points" />
          </mxGeometry>
        </mxCell>
        <mxCell id="xXMWLbv-2RCKO_A-8Q97-117" value="LLIILLIII" style="rounded=0;whiteSpace=wrap;html=1;fontSize=40;movable=1;resizable=1;rotatable=1;deletable=1;editable=1;locked=0;connectable=1;arcSize=50;fillColor=#fa6800;fontColor=#000000;strokeColor=#C73500;container=0;labelBorderColor=none;" parent="X6zUUjQ-Mcst8cZV5Myz-4" vertex="1">
          <mxGeometry x="589.9747902869759" y="600" width="206.0452538631347" height="60" as="geometry" />
        </mxCell>
        <mxCell id="xXMWLbv-2RCKO_A-8Q97-108" style="edgeStyle=orthogonalEdgeStyle;rounded=0;orthogonalLoop=1;jettySize=auto;html=1;exitX=1;exitY=0.5;exitDx=0;exitDy=0;entryX=0;entryY=0.5;entryDx=0;entryDy=0;labelBorderColor=none;fontColor=#000000;" parent="X6zUUjQ-Mcst8cZV5Myz-4" source="xXMWLbv-2RCKO_A-8Q97-11" target="xXMWLbv-2RCKO_A-8Q97-106" edge="1">
          <mxGeometry relative="1" as="geometry">
            <Array as="points">
              <mxPoint x="1251.7436644591614" y="150" />
              <mxPoint x="1251.7436644591614" y="210" />
            </Array>
          </mxGeometry>
        </mxCell>
        <mxCell id="xXMWLbv-2RCKO_A-8Q97-118" value="" style="shape=flexArrow;endArrow=classic;html=1;rounded=0;exitX=0.25;exitY=1;exitDx=0;exitDy=0;entryX=1;entryY=0.5;entryDx=0;entryDy=0;strokeWidth=5;fillColor=#a0522d;strokeColor=#6D1F00;labelBorderColor=none;fontColor=#000000;" parent="X6zUUjQ-Mcst8cZV5Myz-4" source="xXMWLbv-2RCKO_A-8Q97-106" target="xXMWLbv-2RCKO_A-8Q97-14" edge="1">
          <mxGeometry width="50" height="50" relative="1" as="geometry">
            <mxPoint x="1372.9467549668873" y="80" as="sourcePoint" />
            <mxPoint x="1376.5828476821196" y="190" as="targetPoint" />
            <Array as="points">
              <mxPoint x="1352" y="400" />
            </Array>
          </mxGeometry>
        </mxCell>
        <mxCell id="xXMWLbv-2RCKO_A-8Q97-119" value="" style="shape=flexArrow;endArrow=classic;html=1;rounded=0;exitX=0.5;exitY=1;exitDx=0;exitDy=0;entryX=0.5;entryY=0;entryDx=0;entryDy=0;fillColor=#a0522d;strokeColor=#6D1F00;strokeWidth=5;labelBorderColor=none;fontColor=#000000;" parent="X6zUUjQ-Mcst8cZV5Myz-4" source="xXMWLbv-2RCKO_A-8Q97-95" target="xXMWLbv-2RCKO_A-8Q97-120" edge="1">
          <mxGeometry width="50" height="50" relative="1" as="geometry">
            <mxPoint x="705.1177262693159" y="440" as="sourcePoint" />
            <mxPoint x="894.1945474613688" y="180" as="targetPoint" />
            <Array as="points" />
          </mxGeometry>
        </mxCell>
        <mxCell id="xXMWLbv-2RCKO_A-8Q97-120" value="HLIII-IV-V" style="rounded=0;whiteSpace=wrap;html=1;fontSize=40;movable=1;resizable=1;rotatable=1;deletable=1;editable=1;locked=0;connectable=1;arcSize=50;fillColor=#fa6800;fontColor=#000000;strokeColor=#C73500;container=0;labelBorderColor=none;" parent="X6zUUjQ-Mcst8cZV5Myz-4" vertex="1">
          <mxGeometry x="779.0516114790289" y="250" width="230.28587196467993" height="60" as="geometry" />
        </mxCell>
        <mxCell id="xXMWLbv-2RCKO_A-8Q97-121" value="" style="shape=flexArrow;endArrow=classic;html=1;rounded=0;exitX=0.5;exitY=1;exitDx=0;exitDy=0;entryX=0.5;entryY=0;entryDx=0;entryDy=0;fillColor=#a0522d;strokeColor=#6D1F00;strokeWidth=5;labelBorderColor=none;fontColor=#000000;" parent="X6zUUjQ-Mcst8cZV5Myz-4" source="xXMWLbv-2RCKO_A-8Q97-106" target="xXMWLbv-2RCKO_A-8Q97-122" edge="1">
          <mxGeometry width="50" height="50" relative="1" as="geometry">
            <mxPoint x="1372.9467549668873" y="80" as="sourcePoint" />
            <mxPoint x="1427.4881456953642" y="490" as="targetPoint" />
          </mxGeometry>
        </mxCell>
        <mxCell id="xXMWLbv-2RCKO_A-8Q97-122" value="HLVI-HLVII" style="rounded=0;whiteSpace=wrap;html=1;fontSize=40;fillColor=#fa6800;fontColor=#000000;strokeColor=#C73500;arcSize=50;container=0;labelBorderColor=none;" parent="X6zUUjQ-Mcst8cZV5Myz-4" vertex="1">
          <mxGeometry x="1288.1049006622516" y="490" width="254.5264900662252" height="60" as="geometry" />
        </mxCell>
        <mxCell id="8u9ufh7_MEULoS_vxXox-2" value="LLI" style="rounded=0;whiteSpace=wrap;html=1;fontSize=40;movable=1;resizable=1;rotatable=1;deletable=1;editable=1;locked=0;connectable=1;container=0;labelBorderColor=none;fontColor=#000000;" vertex="1" parent="X6zUUjQ-Mcst8cZV5Myz-4">
          <mxGeometry x="270" y="310" width="82.11" height="220" as="geometry" />
        </mxCell>
        <mxCell id="8u9ufh7_MEULoS_vxXox-8" value="" style="group;strokeWidth=5;labelBorderColor=none;fontColor=#000000;" vertex="1" connectable="0" parent="1">
          <mxGeometry x="-703" y="1460" width="1601" height="840" as="geometry" />
        </mxCell>
        <mxCell id="8u9ufh7_MEULoS_vxXox-9" value="Middle" style="rounded=0;whiteSpace=wrap;html=1;fontSize=58;horizontal=0;movable=1;resizable=1;rotatable=1;deletable=1;editable=1;locked=0;connectable=1;container=0;labelBorderColor=none;fontColor=#000000;" vertex="1" parent="8u9ufh7_MEULoS_vxXox-8">
          <mxGeometry y="280" width="158" height="280" as="geometry" />
        </mxCell>
        <mxCell id="8u9ufh7_MEULoS_vxXox-10" value="Surface" style="rounded=0;whiteSpace=wrap;fontSize=58;horizontal=0;movable=1;resizable=1;rotatable=1;deletable=1;editable=1;locked=0;connectable=1;container=0;labelBorderColor=none;fontColor=#000000;" vertex="1" parent="8u9ufh7_MEULoS_vxXox-8">
          <mxGeometry width="158" height="280" as="geometry" />
        </mxCell>
        <mxCell id="8u9ufh7_MEULoS_vxXox-11" value="Deep" style="rounded=0;whiteSpace=wrap;fontSize=58;horizontal=0;movable=1;resizable=1;rotatable=1;deletable=1;editable=1;locked=0;connectable=1;container=0;labelBorderColor=none;fontColor=#000000;" vertex="1" parent="8u9ufh7_MEULoS_vxXox-8">
          <mxGeometry y="560" width="158" height="200" as="geometry" />
        </mxCell>
        <mxCell id="8u9ufh7_MEULoS_vxXox-12" value="sediment" style="rounded=0;whiteSpace=wrap;fontSize=24;horizontal=1;movable=1;resizable=1;rotatable=1;deletable=1;editable=1;locked=0;connectable=1;container=0;labelBorderColor=none;fontColor=#000000;" vertex="1" parent="8u9ufh7_MEULoS_vxXox-8">
          <mxGeometry y="760" width="158" height="80" as="geometry" />
        </mxCell>
        <mxCell id="8u9ufh7_MEULoS_vxXox-13" value="" style="endArrow=none;dashed=1;html=1;rounded=0;strokeWidth=9;movable=1;resizable=1;rotatable=1;deletable=1;editable=1;locked=0;connectable=1;labelBorderColor=none;fontColor=#000000;" edge="1" parent="8u9ufh7_MEULoS_vxXox-8">
          <mxGeometry width="50" height="50" relative="1" as="geometry">
            <mxPoint x="158" as="sourcePoint" />
            <mxPoint x="2900" as="targetPoint" />
          </mxGeometry>
        </mxCell>
        <mxCell id="8u9ufh7_MEULoS_vxXox-14" value="" style="endArrow=none;dashed=1;html=1;rounded=0;strokeWidth=9;movable=1;resizable=1;rotatable=1;deletable=1;editable=1;locked=0;connectable=1;labelBorderColor=none;fontColor=#000000;" edge="1" parent="8u9ufh7_MEULoS_vxXox-8">
          <mxGeometry width="50" height="50" relative="1" as="geometry">
            <mxPoint x="158" y="280" as="sourcePoint" />
            <mxPoint x="2900" y="280" as="targetPoint" />
          </mxGeometry>
        </mxCell>
        <mxCell id="8u9ufh7_MEULoS_vxXox-15" value="" style="endArrow=none;dashed=1;html=1;rounded=0;strokeWidth=9;movable=1;resizable=1;rotatable=1;deletable=1;editable=1;locked=0;connectable=1;labelBorderColor=none;fontColor=#000000;" edge="1" parent="8u9ufh7_MEULoS_vxXox-8">
          <mxGeometry x="-0.117" y="160" width="50" height="50" relative="1" as="geometry">
            <mxPoint x="158" y="560" as="sourcePoint" />
            <mxPoint x="2900" y="560" as="targetPoint" />
            <mxPoint as="offset" />
          </mxGeometry>
        </mxCell>
        <mxCell id="8u9ufh7_MEULoS_vxXox-16" value="" style="endArrow=none;dashed=1;html=1;rounded=0;strokeWidth=9;movable=1;resizable=1;rotatable=1;deletable=1;editable=1;locked=0;connectable=1;labelBorderColor=none;fontColor=#000000;" edge="1" parent="8u9ufh7_MEULoS_vxXox-8">
          <mxGeometry width="50" height="50" relative="1" as="geometry">
            <mxPoint x="158" y="840" as="sourcePoint" />
            <mxPoint x="2910" y="840" as="targetPoint" />
          </mxGeometry>
        </mxCell>
        <mxCell id="8u9ufh7_MEULoS_vxXox-17" value="" style="endArrow=none;html=1;rounded=0;fontSize=20;strokeWidth=20;movable=1;resizable=1;rotatable=1;deletable=1;editable=1;locked=0;connectable=1;labelBorderColor=none;fontColor=#000000;" edge="1" parent="8u9ufh7_MEULoS_vxXox-8">
          <mxGeometry width="50" height="50" relative="1" as="geometry">
            <mxPoint x="1442.999133990821" y="840" as="sourcePoint" />
            <mxPoint x="1442.999133990821" as="targetPoint" />
          </mxGeometry>
        </mxCell>
        <mxCell id="8u9ufh7_MEULoS_vxXox-18" value="" style="endArrow=none;dashed=1;html=1;rounded=0;exitX=1;exitY=1;exitDx=0;exitDy=0;strokeWidth=10;movable=1;resizable=1;rotatable=1;deletable=1;editable=1;locked=0;connectable=1;labelBorderColor=none;fontColor=#000000;" edge="1" parent="8u9ufh7_MEULoS_vxXox-8" source="8u9ufh7_MEULoS_vxXox-11">
          <mxGeometry width="50" height="50" relative="1" as="geometry">
            <mxPoint x="355.49999999999994" y="760" as="sourcePoint" />
            <mxPoint x="2910" y="760" as="targetPoint" />
          </mxGeometry>
        </mxCell>
        <mxCell id="8u9ufh7_MEULoS_vxXox-19" value="AMZ" style="rounded=0;whiteSpace=wrap;html=1;fontSize=40;movable=1;resizable=1;rotatable=1;deletable=1;editable=1;locked=0;connectable=1;container=0;labelBorderColor=none;fontColor=#000000;" vertex="1" parent="8u9ufh7_MEULoS_vxXox-8">
          <mxGeometry x="177.8842825607064" y="770" width="145.44370860927154" height="60" as="geometry" />
        </mxCell>
        <mxCell id="8u9ufh7_MEULoS_vxXox-54" style="edgeStyle=orthogonalEdgeStyle;rounded=0;orthogonalLoop=1;jettySize=auto;html=1;exitX=0.5;exitY=0;exitDx=0;exitDy=0;entryX=0;entryY=0.5;entryDx=0;entryDy=0;strokeWidth=5;labelBorderColor=none;fontColor=#000000;" edge="1" parent="8u9ufh7_MEULoS_vxXox-8" source="8u9ufh7_MEULoS_vxXox-20" target="8u9ufh7_MEULoS_vxXox-23">
          <mxGeometry relative="1" as="geometry" />
        </mxCell>
        <mxCell id="8u9ufh7_MEULoS_vxXox-20" value="LLIV" style="rounded=0;whiteSpace=wrap;html=1;fontSize=40;movable=1;resizable=1;rotatable=1;deletable=1;editable=1;locked=0;connectable=1;container=0;labelBorderColor=none;fontColor=#000000;" vertex="1" parent="8u9ufh7_MEULoS_vxXox-8">
          <mxGeometry x="177.8842825607064" y="660" width="145.44370860927154" height="60" as="geometry" />
        </mxCell>
        <mxCell id="8u9ufh7_MEULoS_vxXox-21" style="edgeStyle=orthogonalEdgeStyle;rounded=0;orthogonalLoop=1;jettySize=auto;html=1;exitX=0.5;exitY=0;exitDx=0;exitDy=0;entryX=0;entryY=0.5;entryDx=0;entryDy=0;strokeWidth=5;labelBorderColor=none;fontColor=#000000;" edge="1" parent="8u9ufh7_MEULoS_vxXox-8" source="8u9ufh7_MEULoS_vxXox-23" target="8u9ufh7_MEULoS_vxXox-52">
          <mxGeometry relative="1" as="geometry" />
        </mxCell>
        <mxCell id="8u9ufh7_MEULoS_vxXox-55" style="edgeStyle=orthogonalEdgeStyle;rounded=0;orthogonalLoop=1;jettySize=auto;html=1;exitX=0.5;exitY=1;exitDx=0;exitDy=0;entryX=0;entryY=0.5;entryDx=0;entryDy=0;strokeWidth=5;labelBorderColor=none;fontColor=#000000;" edge="1" parent="8u9ufh7_MEULoS_vxXox-8" source="8u9ufh7_MEULoS_vxXox-23" target="8u9ufh7_MEULoS_vxXox-25">
          <mxGeometry relative="1" as="geometry" />
        </mxCell>
        <mxCell id="8u9ufh7_MEULoS_vxXox-23" value="A1" style="rounded=0;whiteSpace=wrap;html=1;fontSize=40;movable=1;resizable=1;rotatable=1;deletable=1;editable=1;locked=0;connectable=1;container=0;labelBorderColor=none;fontColor=#000000;" vertex="1" parent="8u9ufh7_MEULoS_vxXox-8">
          <mxGeometry x="410" y="520" width="60.45" height="120" as="geometry" />
        </mxCell>
        <mxCell id="8u9ufh7_MEULoS_vxXox-25" value="LLother" style="rounded=0;whiteSpace=wrap;html=1;fontSize=40;movable=1;resizable=1;rotatable=1;deletable=1;editable=1;locked=0;connectable=1;container=0;labelBorderColor=none;fontColor=#000000;" vertex="1" parent="8u9ufh7_MEULoS_vxXox-8">
          <mxGeometry x="507.00147902869776" y="630" width="193.92494481236204" height="60" as="geometry" />
        </mxCell>
        <mxCell id="8u9ufh7_MEULoS_vxXox-66" style="edgeStyle=orthogonalEdgeStyle;rounded=0;orthogonalLoop=1;jettySize=auto;html=1;exitX=1;exitY=0.75;exitDx=0;exitDy=0;entryX=0;entryY=0.5;entryDx=0;entryDy=0;fillColor=#008a00;strokeColor=#000000;strokeWidth=5;labelBorderColor=none;fontColor=#000000;" edge="1" parent="8u9ufh7_MEULoS_vxXox-8" source="8u9ufh7_MEULoS_vxXox-30" target="8u9ufh7_MEULoS_vxXox-64">
          <mxGeometry relative="1" as="geometry" />
        </mxCell>
        <mxCell id="8u9ufh7_MEULoS_vxXox-67" style="edgeStyle=orthogonalEdgeStyle;rounded=0;orthogonalLoop=1;jettySize=auto;html=1;exitX=1;exitY=0.25;exitDx=0;exitDy=0;entryX=0;entryY=0.5;entryDx=0;entryDy=0;fillColor=#008a00;strokeColor=#000000;strokeWidth=5;labelBorderColor=none;fontColor=#000000;" edge="1" parent="8u9ufh7_MEULoS_vxXox-8" source="8u9ufh7_MEULoS_vxXox-30" target="8u9ufh7_MEULoS_vxXox-63">
          <mxGeometry relative="1" as="geometry" />
        </mxCell>
        <mxCell id="8u9ufh7_MEULoS_vxXox-30" value="A2" style="rounded=0;whiteSpace=wrap;html=1;fontSize=40;align=center;movable=1;resizable=1;rotatable=1;deletable=1;editable=1;locked=0;connectable=1;container=0;labelBorderColor=none;fontColor=#000000;" vertex="1" parent="8u9ufh7_MEULoS_vxXox-8">
          <mxGeometry x="840" y="220" width="60.6" height="180" as="geometry" />
        </mxCell>
        <mxCell id="8u9ufh7_MEULoS_vxXox-59" style="edgeStyle=orthogonalEdgeStyle;rounded=0;orthogonalLoop=1;jettySize=auto;html=1;exitX=1;exitY=0.25;exitDx=0;exitDy=0;entryX=0;entryY=0.75;entryDx=0;entryDy=0;strokeWidth=5;labelBorderColor=none;fontColor=#000000;" edge="1" parent="8u9ufh7_MEULoS_vxXox-8" source="8u9ufh7_MEULoS_vxXox-52" target="8u9ufh7_MEULoS_vxXox-30">
          <mxGeometry relative="1" as="geometry" />
        </mxCell>
        <mxCell id="8u9ufh7_MEULoS_vxXox-60" value="&lt;font style=&quot;font-size: 40px;&quot;&gt;S2&lt;/font&gt;" style="edgeLabel;html=1;align=center;verticalAlign=middle;resizable=0;points=[];labelBorderColor=none;fontColor=#000000;" vertex="1" connectable="0" parent="8u9ufh7_MEULoS_vxXox-59">
          <mxGeometry x="0.1492" relative="1" as="geometry">
            <mxPoint x="-12" y="35" as="offset" />
          </mxGeometry>
        </mxCell>
        <mxCell id="8u9ufh7_MEULoS_vxXox-52" value="LLI" style="rounded=0;whiteSpace=wrap;html=1;fontSize=40;movable=1;resizable=1;rotatable=1;deletable=1;editable=1;locked=0;connectable=1;container=0;labelBorderColor=none;fontColor=#000000;" vertex="1" parent="8u9ufh7_MEULoS_vxXox-8">
          <mxGeometry x="618.82" y="290" width="82.11" height="260" as="geometry" />
        </mxCell>
        <mxCell id="8u9ufh7_MEULoS_vxXox-53" value="" style="shape=flexArrow;endArrow=classic;startArrow=classic;html=1;rounded=0;exitX=1;exitY=0.5;exitDx=0;exitDy=0;entryX=1;entryY=0.5;entryDx=0;entryDy=0;labelBorderColor=none;fontColor=#000000;" edge="1" parent="8u9ufh7_MEULoS_vxXox-8" source="8u9ufh7_MEULoS_vxXox-19" target="8u9ufh7_MEULoS_vxXox-20">
          <mxGeometry width="100" height="100" relative="1" as="geometry">
            <mxPoint x="607" y="260" as="sourcePoint" />
            <mxPoint x="707" y="160" as="targetPoint" />
            <Array as="points">
              <mxPoint x="377" y="800" />
              <mxPoint x="377" y="740" />
              <mxPoint x="377" y="690" />
            </Array>
          </mxGeometry>
        </mxCell>
        <mxCell id="8u9ufh7_MEULoS_vxXox-57" value="&lt;font style=&quot;&quot;&gt;&lt;font style=&quot;font-size: 40px;&quot;&gt;S1&lt;/font&gt;&lt;br&gt;&lt;/font&gt;" style="edgeLabel;html=1;align=center;verticalAlign=middle;resizable=0;points=[];container=0;labelBorderColor=none;fontColor=#000000;" vertex="1" connectable="0" parent="8u9ufh7_MEULoS_vxXox-8">
          <mxGeometry x="800" y="460.5004672113073" as="geometry">
            <mxPoint x="-469" y="147" as="offset" />
          </mxGeometry>
        </mxCell>
        <mxCell id="8u9ufh7_MEULoS_vxXox-71" style="edgeStyle=orthogonalEdgeStyle;rounded=0;orthogonalLoop=1;jettySize=auto;html=1;exitX=0.75;exitY=1;exitDx=0;exitDy=0;entryX=0.5;entryY=0;entryDx=0;entryDy=0;strokeWidth=5;labelBorderColor=none;fontColor=#000000;" edge="1" parent="8u9ufh7_MEULoS_vxXox-8" source="8u9ufh7_MEULoS_vxXox-64" target="8u9ufh7_MEULoS_vxXox-72">
          <mxGeometry relative="1" as="geometry">
            <mxPoint x="1120.333333333333" y="620" as="targetPoint" />
          </mxGeometry>
        </mxCell>
        <mxCell id="8u9ufh7_MEULoS_vxXox-64" value="LLIILLIII" style="rounded=1;whiteSpace=wrap;html=1;fontSize=40;movable=1;resizable=1;rotatable=1;deletable=1;editable=1;locked=0;connectable=1;container=0;fillColor=#008a00;fontColor=#000000;strokeColor=#005700;arcSize=50;labelBorderColor=none;" vertex="1" parent="8u9ufh7_MEULoS_vxXox-8">
          <mxGeometry x="974.0014790286978" y="325" width="193.92494481236204" height="60" as="geometry" />
        </mxCell>
        <mxCell id="8u9ufh7_MEULoS_vxXox-63" value="HL" style="rounded=1;whiteSpace=wrap;html=1;fontSize=40;movable=1;resizable=1;rotatable=1;deletable=1;editable=1;locked=0;connectable=1;container=0;fillColor=#008a00;fontColor=#000000;strokeColor=#005700;arcSize=50;labelBorderColor=none;" vertex="1" parent="8u9ufh7_MEULoS_vxXox-8">
          <mxGeometry x="974" y="180" width="152.12" height="60" as="geometry" />
        </mxCell>
        <mxCell id="8u9ufh7_MEULoS_vxXox-68" value="" style="shape=flexArrow;endArrow=classic;html=1;rounded=0;exitX=1;exitY=0.5;exitDx=0;exitDy=0;entryX=1;entryY=0.5;entryDx=0;entryDy=0;fillColor=#a0522d;strokeColor=#6D1F00;strokeWidth=5;labelBorderColor=none;fontColor=#000000;" edge="1" parent="8u9ufh7_MEULoS_vxXox-8" source="8u9ufh7_MEULoS_vxXox-63" target="8u9ufh7_MEULoS_vxXox-64">
          <mxGeometry width="50" height="50" relative="1" as="geometry">
            <mxPoint x="810" y="560" as="sourcePoint" />
            <mxPoint x="860" y="510" as="targetPoint" />
            <Array as="points">
              <mxPoint x="1230" y="210" />
              <mxPoint x="1230" y="355" />
            </Array>
          </mxGeometry>
        </mxCell>
        <mxCell id="8u9ufh7_MEULoS_vxXox-69" value="" style="shape=flexArrow;endArrow=classic;html=1;rounded=0;exitX=1;exitY=0.75;exitDx=0;exitDy=0;entryX=0.25;entryY=1;entryDx=0;entryDy=0;fillColor=#a0522d;strokeColor=#6D1F00;strokeWidth=5;labelBorderColor=none;fontColor=#000000;" edge="1" parent="8u9ufh7_MEULoS_vxXox-8" source="8u9ufh7_MEULoS_vxXox-52" target="8u9ufh7_MEULoS_vxXox-64">
          <mxGeometry width="50" height="50" relative="1" as="geometry">
            <mxPoint x="820" y="510" as="sourcePoint" />
            <mxPoint x="870" y="460" as="targetPoint" />
            <Array as="points">
              <mxPoint x="1022" y="485" />
            </Array>
          </mxGeometry>
        </mxCell>
        <mxCell id="8u9ufh7_MEULoS_vxXox-72" value="LLIILLIII" style="rounded=0;whiteSpace=wrap;html=1;fontSize=40;movable=1;resizable=1;rotatable=1;deletable=1;editable=1;locked=0;connectable=1;container=0;arcSize=50;labelBorderColor=none;fontColor=#000000;" vertex="1" parent="8u9ufh7_MEULoS_vxXox-8">
          <mxGeometry x="1038" y="540" width="163.93" height="101" as="geometry" />
        </mxCell>
        <mxCell id="8u9ufh7_MEULoS_vxXox-137" value="Middle" style="rounded=0;whiteSpace=wrap;html=1;fontSize=58;horizontal=0;movable=1;resizable=1;rotatable=1;deletable=1;editable=1;locked=0;connectable=1;container=0;labelBorderColor=none;fontColor=#000000;" vertex="1" parent="8u9ufh7_MEULoS_vxXox-8">
          <mxGeometry x="1443" y="280" width="158" height="280" as="geometry" />
        </mxCell>
        <mxCell id="8u9ufh7_MEULoS_vxXox-138" value="Surface" style="rounded=0;whiteSpace=wrap;fontSize=58;horizontal=0;movable=1;resizable=1;rotatable=1;deletable=1;editable=1;locked=0;connectable=1;container=0;labelBorderColor=none;fontColor=#000000;" vertex="1" parent="8u9ufh7_MEULoS_vxXox-8">
          <mxGeometry x="1443" width="158" height="280" as="geometry" />
        </mxCell>
        <mxCell id="8u9ufh7_MEULoS_vxXox-139" value="Deep" style="rounded=0;whiteSpace=wrap;fontSize=58;horizontal=0;movable=1;resizable=1;rotatable=1;deletable=1;editable=1;locked=0;connectable=1;container=0;labelBorderColor=none;fontColor=#000000;" vertex="1" parent="8u9ufh7_MEULoS_vxXox-8">
          <mxGeometry x="1443" y="560" width="158" height="200" as="geometry" />
        </mxCell>
        <mxCell id="8u9ufh7_MEULoS_vxXox-140" value="sediment" style="rounded=0;whiteSpace=wrap;fontSize=24;horizontal=1;movable=1;resizable=1;rotatable=1;deletable=1;editable=1;locked=0;connectable=1;container=0;labelBorderColor=none;fontColor=#000000;" vertex="1" parent="8u9ufh7_MEULoS_vxXox-8">
          <mxGeometry x="1443" y="760" width="158" height="80" as="geometry" />
        </mxCell>
        <mxCell id="8u9ufh7_MEULoS_vxXox-73" value="" style="endArrow=none;html=1;rounded=0;fontSize=20;strokeWidth=20;movable=1;resizable=1;rotatable=1;deletable=1;editable=1;locked=0;connectable=1;labelBorderColor=none;fontColor=#000000;" edge="1" parent="1">
          <mxGeometry width="50" height="50" relative="1" as="geometry">
            <mxPoint x="2210" y="2300" as="sourcePoint" />
            <mxPoint x="2210" y="1460" as="targetPoint" />
          </mxGeometry>
        </mxCell>
        <mxCell id="8u9ufh7_MEULoS_vxXox-112" style="edgeStyle=orthogonalEdgeStyle;rounded=0;orthogonalLoop=1;jettySize=auto;html=1;exitX=0.5;exitY=0;exitDx=0;exitDy=0;entryX=0;entryY=0.5;entryDx=0;entryDy=0;strokeWidth=5;labelBorderColor=none;fontColor=#000000;" edge="1" parent="1" source="8u9ufh7_MEULoS_vxXox-108" target="8u9ufh7_MEULoS_vxXox-110">
          <mxGeometry relative="1" as="geometry" />
        </mxCell>
        <mxCell id="8u9ufh7_MEULoS_vxXox-113" style="edgeStyle=orthogonalEdgeStyle;rounded=0;orthogonalLoop=1;jettySize=auto;html=1;exitX=1;exitY=0.5;exitDx=0;exitDy=0;entryX=0;entryY=0.5;entryDx=0;entryDy=0;strokeWidth=5;labelBorderColor=none;fontColor=#000000;" edge="1" parent="1" source="8u9ufh7_MEULoS_vxXox-108" target="8u9ufh7_MEULoS_vxXox-111">
          <mxGeometry relative="1" as="geometry" />
        </mxCell>
        <mxCell id="8u9ufh7_MEULoS_vxXox-108" value="HL" style="rounded=1;whiteSpace=wrap;html=1;fontSize=40;movable=1;resizable=1;rotatable=1;deletable=1;editable=1;locked=0;connectable=1;container=0;fillColor=#008a00;fontColor=#000000;strokeColor=#005700;arcSize=50;labelBorderColor=none;" vertex="1" parent="1">
          <mxGeometry x="920" y="1640" width="152.12" height="60" as="geometry" />
        </mxCell>
        <mxCell id="8u9ufh7_MEULoS_vxXox-117" style="edgeStyle=orthogonalEdgeStyle;rounded=0;orthogonalLoop=1;jettySize=auto;html=1;exitX=1;exitY=0.5;exitDx=0;exitDy=0;entryX=0;entryY=0.5;entryDx=0;entryDy=0;strokeWidth=5;labelBorderColor=none;fontColor=#000000;" edge="1" parent="1" source="8u9ufh7_MEULoS_vxXox-110" target="8u9ufh7_MEULoS_vxXox-116">
          <mxGeometry relative="1" as="geometry" />
        </mxCell>
        <mxCell id="8u9ufh7_MEULoS_vxXox-118" style="edgeStyle=orthogonalEdgeStyle;rounded=0;orthogonalLoop=1;jettySize=auto;html=1;exitX=1;exitY=0.5;exitDx=0;exitDy=0;entryX=0;entryY=0.5;entryDx=0;entryDy=0;strokeWidth=5;labelBorderColor=none;fontColor=#000000;" edge="1" parent="1" source="8u9ufh7_MEULoS_vxXox-110" target="8u9ufh7_MEULoS_vxXox-115">
          <mxGeometry relative="1" as="geometry" />
        </mxCell>
        <mxCell id="8u9ufh7_MEULoS_vxXox-110" value="HLI、HLII、HLVI" style="rounded=1;whiteSpace=wrap;html=1;fontSize=40;movable=1;resizable=1;rotatable=1;deletable=1;editable=1;locked=0;connectable=1;container=0;arcSize=50;fillColor=#008a00;fontColor=#000000;strokeColor=#005700;labelBorderColor=none;" vertex="1" parent="1">
          <mxGeometry x="1120" y="1540" width="370" height="60" as="geometry" />
        </mxCell>
        <mxCell id="8u9ufh7_MEULoS_vxXox-130" style="edgeStyle=orthogonalEdgeStyle;rounded=0;orthogonalLoop=1;jettySize=auto;html=1;exitX=0.5;exitY=1;exitDx=0;exitDy=0;entryX=0;entryY=0.5;entryDx=0;entryDy=0;strokeWidth=5;labelBorderColor=none;fontColor=#000000;" edge="1" parent="1" source="8u9ufh7_MEULoS_vxXox-111" target="8u9ufh7_MEULoS_vxXox-129">
          <mxGeometry relative="1" as="geometry" />
        </mxCell>
        <mxCell id="8u9ufh7_MEULoS_vxXox-111" value="HLIII/IV/V" style="rounded=1;whiteSpace=wrap;html=1;fontSize=40;movable=1;resizable=1;rotatable=1;deletable=1;editable=1;locked=0;connectable=1;container=0;arcSize=50;fillColor=#008a00;fontColor=#000000;strokeColor=#005700;labelBorderColor=none;" vertex="1" parent="1">
          <mxGeometry x="1120" y="1640" width="200" height="60" as="geometry" />
        </mxCell>
        <mxCell id="8u9ufh7_MEULoS_vxXox-115" value="HLI" style="rounded=0;whiteSpace=wrap;html=1;fontSize=40;movable=1;resizable=1;rotatable=1;deletable=1;editable=1;locked=0;connectable=1;container=0;arcSize=50;labelBorderColor=none;fontColor=#000000;" vertex="1" parent="1">
          <mxGeometry x="1560" y="1590" width="163.93" height="60" as="geometry" />
        </mxCell>
        <mxCell id="8u9ufh7_MEULoS_vxXox-121" style="edgeStyle=orthogonalEdgeStyle;rounded=0;orthogonalLoop=1;jettySize=auto;html=1;exitX=1;exitY=0.5;exitDx=0;exitDy=0;entryX=0;entryY=0.5;entryDx=0;entryDy=0;strokeWidth=5;labelBorderColor=none;fontColor=#000000;" edge="1" parent="1" source="8u9ufh7_MEULoS_vxXox-116" target="8u9ufh7_MEULoS_vxXox-119">
          <mxGeometry relative="1" as="geometry" />
        </mxCell>
        <mxCell id="8u9ufh7_MEULoS_vxXox-122" style="edgeStyle=orthogonalEdgeStyle;rounded=0;orthogonalLoop=1;jettySize=auto;html=1;exitX=1;exitY=0.5;exitDx=0;exitDy=0;entryX=0.5;entryY=0;entryDx=0;entryDy=0;strokeWidth=5;labelBorderColor=none;fontColor=#000000;" edge="1" parent="1" source="8u9ufh7_MEULoS_vxXox-116" target="8u9ufh7_MEULoS_vxXox-120">
          <mxGeometry relative="1" as="geometry">
            <Array as="points">
              <mxPoint x="1830" y="1520" />
              <mxPoint x="1830" y="1600" />
              <mxPoint x="1892" y="1600" />
            </Array>
          </mxGeometry>
        </mxCell>
        <mxCell id="8u9ufh7_MEULoS_vxXox-116" value="HLII、HLVI" style="rounded=1;whiteSpace=wrap;html=1;fontSize=40;movable=1;resizable=1;rotatable=1;deletable=1;editable=1;locked=0;connectable=1;container=0;arcSize=50;fillColor=#008a00;fontColor=#000000;strokeColor=#005700;labelBorderColor=none;" vertex="1" parent="1">
          <mxGeometry x="1560" y="1490" width="230" height="60" as="geometry" />
        </mxCell>
        <mxCell id="8u9ufh7_MEULoS_vxXox-119" value="HLII" style="rounded=0;whiteSpace=wrap;html=1;fontSize=40;movable=1;resizable=1;rotatable=1;deletable=1;editable=1;locked=0;connectable=1;container=0;arcSize=50;labelBorderColor=none;fontColor=#000000;" vertex="1" parent="1">
          <mxGeometry x="1890" y="1490" width="163.93" height="60" as="geometry" />
        </mxCell>
        <mxCell id="8u9ufh7_MEULoS_vxXox-134" style="edgeStyle=orthogonalEdgeStyle;rounded=0;orthogonalLoop=1;jettySize=auto;html=1;exitX=0.5;exitY=1;exitDx=0;exitDy=0;entryX=0.5;entryY=0;entryDx=0;entryDy=0;strokeWidth=5;labelBorderColor=none;fontColor=#000000;" edge="1" parent="1" source="8u9ufh7_MEULoS_vxXox-120" target="8u9ufh7_MEULoS_vxXox-133">
          <mxGeometry relative="1" as="geometry" />
        </mxCell>
        <mxCell id="8u9ufh7_MEULoS_vxXox-120" value="HLVI" style="rounded=1;whiteSpace=wrap;html=1;fontSize=40;movable=1;resizable=1;rotatable=1;deletable=1;editable=1;locked=0;connectable=1;container=0;arcSize=50;fillColor=#008a00;fontColor=#000000;strokeColor=#005700;labelBorderColor=none;" vertex="1" parent="1">
          <mxGeometry x="1810" y="1660" width="163.93" height="60" as="geometry" />
        </mxCell>
        <mxCell id="8u9ufh7_MEULoS_vxXox-124" value="" style="shape=flexArrow;endArrow=classic;html=1;rounded=0;exitX=0;exitY=0.5;exitDx=0;exitDy=0;entryX=0.75;entryY=0;entryDx=0;entryDy=0;fillColor=#a0522d;strokeColor=#6D1F00;strokeWidth=5;labelBorderColor=none;fontColor=#000000;" edge="1" parent="1" source="8u9ufh7_MEULoS_vxXox-135" target="8u9ufh7_MEULoS_vxXox-133">
          <mxGeometry width="50" height="50" relative="1" as="geometry">
            <mxPoint x="1730" y="1350" as="sourcePoint" />
            <mxPoint x="1780" y="1300" as="targetPoint" />
            <Array as="points">
              <mxPoint x="1933" y="1890" />
            </Array>
          </mxGeometry>
        </mxCell>
        <mxCell id="8u9ufh7_MEULoS_vxXox-126" value="" style="shape=flexArrow;endArrow=classic;html=1;rounded=0;exitX=0.25;exitY=1;exitDx=0;exitDy=0;entryX=0.75;entryY=0;entryDx=0;entryDy=0;fillColor=#a0522d;strokeColor=#6D1F00;strokeWidth=5;labelBorderColor=none;fontColor=#000000;" edge="1" parent="1" source="8u9ufh7_MEULoS_vxXox-119" target="8u9ufh7_MEULoS_vxXox-120">
          <mxGeometry width="50" height="50" relative="1" as="geometry">
            <mxPoint x="1750" y="1370" as="sourcePoint" />
            <mxPoint x="1800" y="1320" as="targetPoint" />
          </mxGeometry>
        </mxCell>
        <mxCell id="8u9ufh7_MEULoS_vxXox-127" value="" style="shape=flexArrow;endArrow=classic;html=1;rounded=0;exitX=0.25;exitY=1;exitDx=0;exitDy=0;entryX=1;entryY=0.5;entryDx=0;entryDy=0;fillColor=#a0522d;strokeColor=#6D1F00;strokeWidth=5;labelBorderColor=none;fontColor=#000000;" edge="1" parent="1" source="8u9ufh7_MEULoS_vxXox-115" target="8u9ufh7_MEULoS_vxXox-111">
          <mxGeometry width="50" height="50" relative="1" as="geometry">
            <mxPoint x="1760" y="1380" as="sourcePoint" />
            <mxPoint x="1810" y="1330" as="targetPoint" />
            <Array as="points">
              <mxPoint x="1600" y="1670" />
            </Array>
          </mxGeometry>
        </mxCell>
        <mxCell id="8u9ufh7_MEULoS_vxXox-128" value="" style="shape=flexArrow;endArrow=classic;html=1;rounded=0;exitX=0.75;exitY=1;exitDx=0;exitDy=0;entryX=1;entryY=0.5;entryDx=0;entryDy=0;fillColor=#a0522d;strokeColor=#6D1F00;strokeWidth=5;labelBorderColor=none;fontColor=#000000;" edge="1" parent="1" source="8u9ufh7_MEULoS_vxXox-110" target="8u9ufh7_MEULoS_vxXox-111">
          <mxGeometry width="50" height="50" relative="1" as="geometry">
            <mxPoint x="1770" y="1390" as="sourcePoint" />
            <mxPoint x="1820" y="1340" as="targetPoint" />
            <Array as="points">
              <mxPoint x="1397" y="1670" />
            </Array>
          </mxGeometry>
        </mxCell>
        <mxCell id="8u9ufh7_MEULoS_vxXox-129" value="HLIII/IV/V" style="rounded=0;whiteSpace=wrap;html=1;fontSize=40;movable=1;resizable=1;rotatable=1;deletable=1;editable=1;locked=0;connectable=1;container=0;arcSize=50;labelBorderColor=none;fontColor=#000000;" vertex="1" parent="1">
          <mxGeometry x="1320" y="1840" width="200" height="140" as="geometry" />
        </mxCell>
        <mxCell id="8u9ufh7_MEULoS_vxXox-133" value="HLVI" style="rounded=0;whiteSpace=wrap;html=1;fontSize=40;movable=1;resizable=1;rotatable=1;deletable=1;editable=1;locked=0;connectable=1;container=0;arcSize=50;labelBorderColor=none;fontColor=#000000;" vertex="1" parent="1">
          <mxGeometry x="1810" y="2050" width="163.93" height="60" as="geometry" />
        </mxCell>
        <mxCell id="8u9ufh7_MEULoS_vxXox-135" value="LL" style="rounded=0;whiteSpace=wrap;html=1;fontSize=40;movable=1;resizable=1;rotatable=1;deletable=1;editable=1;locked=0;connectable=1;container=0;arcSize=50;dashed=1;strokeWidth=5;labelBorderColor=none;fontColor=#000000;" vertex="1" parent="1">
          <mxGeometry x="2000" y="1860" width="163.93" height="60" as="geometry" />
        </mxCell>
        <mxCell id="8u9ufh7_MEULoS_vxXox-141" value="Middle" style="rounded=0;whiteSpace=wrap;html=1;fontSize=58;horizontal=0;movable=1;resizable=1;rotatable=1;deletable=1;editable=1;locked=0;connectable=1;container=0;labelBorderColor=none;fontColor=#000000;" vertex="1" parent="1">
          <mxGeometry x="-710" y="2730" width="158" height="280" as="geometry" />
        </mxCell>
        <mxCell id="8u9ufh7_MEULoS_vxXox-142" value="Surface" style="rounded=0;whiteSpace=wrap;fontSize=58;horizontal=0;movable=1;resizable=1;rotatable=1;deletable=1;editable=1;locked=0;connectable=1;container=0;labelBorderColor=none;fontColor=#000000;" vertex="1" parent="1">
          <mxGeometry x="-710" y="2450" width="158" height="280" as="geometry" />
        </mxCell>
        <mxCell id="8u9ufh7_MEULoS_vxXox-143" value="Deep" style="rounded=0;whiteSpace=wrap;fontSize=58;horizontal=0;movable=1;resizable=1;rotatable=1;deletable=1;editable=1;locked=0;connectable=1;container=0;labelBorderColor=none;fontColor=#000000;" vertex="1" parent="1">
          <mxGeometry x="-710" y="3010" width="158" height="200" as="geometry" />
        </mxCell>
        <mxCell id="8u9ufh7_MEULoS_vxXox-144" value="sediment" style="rounded=0;whiteSpace=wrap;fontSize=24;horizontal=1;movable=1;resizable=1;rotatable=1;deletable=1;editable=1;locked=0;connectable=1;container=0;labelBorderColor=none;fontColor=#000000;" vertex="1" parent="1">
          <mxGeometry x="-710" y="3210" width="158" height="80" as="geometry" />
        </mxCell>
        <mxCell id="8u9ufh7_MEULoS_vxXox-145" value="" style="endArrow=none;html=1;rounded=0;fontSize=20;strokeWidth=20;movable=1;resizable=1;rotatable=1;deletable=1;editable=1;locked=0;connectable=1;labelBorderColor=none;fontColor=#000000;" edge="1" parent="1">
          <mxGeometry width="50" height="50" relative="1" as="geometry">
            <mxPoint x="732.9991339908211" y="3290" as="sourcePoint" />
            <mxPoint x="732.9991339908211" y="2450" as="targetPoint" />
          </mxGeometry>
        </mxCell>
        <mxCell id="8u9ufh7_MEULoS_vxXox-146" value="AMZ" style="rounded=0;whiteSpace=wrap;html=1;fontSize=40;movable=1;resizable=1;rotatable=1;deletable=1;editable=1;locked=0;connectable=1;container=0;labelBorderColor=none;fontColor=#000000;" vertex="1" parent="1">
          <mxGeometry x="-532.1157174392936" y="3220" width="145.44370860927154" height="60" as="geometry" />
        </mxCell>
        <mxCell id="8u9ufh7_MEULoS_vxXox-147" style="edgeStyle=orthogonalEdgeStyle;rounded=0;orthogonalLoop=1;jettySize=auto;html=1;exitX=0.5;exitY=0;exitDx=0;exitDy=0;entryX=0;entryY=0.5;entryDx=0;entryDy=0;strokeWidth=5;labelBorderColor=none;fontColor=#000000;" edge="1" parent="1" source="8u9ufh7_MEULoS_vxXox-148" target="8u9ufh7_MEULoS_vxXox-151">
          <mxGeometry relative="1" as="geometry">
            <Array as="points">
              <mxPoint x="-459" y="3060" />
              <mxPoint x="-300" y="3060" />
            </Array>
          </mxGeometry>
        </mxCell>
        <mxCell id="8u9ufh7_MEULoS_vxXox-148" value="LLIV" style="rounded=0;whiteSpace=wrap;html=1;fontSize=40;movable=1;resizable=1;rotatable=1;deletable=1;editable=1;locked=0;connectable=1;container=0;labelBorderColor=none;fontColor=#000000;" vertex="1" parent="1">
          <mxGeometry x="-532.1157174392936" y="3110" width="145.44370860927154" height="60" as="geometry" />
        </mxCell>
        <mxCell id="8u9ufh7_MEULoS_vxXox-149" style="edgeStyle=orthogonalEdgeStyle;rounded=0;orthogonalLoop=1;jettySize=auto;html=1;exitX=0.5;exitY=0;exitDx=0;exitDy=0;entryX=0;entryY=0.5;entryDx=0;entryDy=0;strokeWidth=5;labelBorderColor=none;fontColor=#000000;" edge="1" parent="1" source="8u9ufh7_MEULoS_vxXox-151" target="8u9ufh7_MEULoS_vxXox-158">
          <mxGeometry relative="1" as="geometry" />
        </mxCell>
        <mxCell id="8u9ufh7_MEULoS_vxXox-153" style="edgeStyle=orthogonalEdgeStyle;rounded=0;orthogonalLoop=1;jettySize=auto;html=1;exitX=1;exitY=0.75;exitDx=0;exitDy=0;entryX=0;entryY=0.5;entryDx=0;entryDy=0;fillColor=#008a00;strokeColor=#000000;strokeWidth=5;labelBorderColor=none;fontColor=#000000;" edge="1" parent="1" source="8u9ufh7_MEULoS_vxXox-155" target="8u9ufh7_MEULoS_vxXox-162">
          <mxGeometry relative="1" as="geometry" />
        </mxCell>
        <mxCell id="8u9ufh7_MEULoS_vxXox-154" style="edgeStyle=orthogonalEdgeStyle;rounded=0;orthogonalLoop=1;jettySize=auto;html=1;exitX=1;exitY=0.25;exitDx=0;exitDy=0;entryX=0;entryY=0.5;entryDx=0;entryDy=0;fillColor=#008a00;strokeColor=#000000;strokeWidth=5;labelBorderColor=none;fontColor=#000000;" edge="1" parent="1" source="8u9ufh7_MEULoS_vxXox-155" target="8u9ufh7_MEULoS_vxXox-163">
          <mxGeometry relative="1" as="geometry" />
        </mxCell>
        <mxCell id="8u9ufh7_MEULoS_vxXox-155" value="A2" style="rounded=0;whiteSpace=wrap;html=1;fontSize=40;align=center;movable=1;resizable=1;rotatable=1;deletable=1;editable=1;locked=0;connectable=1;container=0;labelBorderColor=none;fontColor=#000000;" vertex="1" parent="1">
          <mxGeometry x="130" y="2670" width="60.6" height="180" as="geometry" />
        </mxCell>
        <mxCell id="8u9ufh7_MEULoS_vxXox-156" style="edgeStyle=orthogonalEdgeStyle;rounded=0;orthogonalLoop=1;jettySize=auto;html=1;exitX=1;exitY=0.25;exitDx=0;exitDy=0;entryX=0;entryY=0.75;entryDx=0;entryDy=0;strokeWidth=5;labelBorderColor=none;fontColor=#000000;" edge="1" parent="1" source="8u9ufh7_MEULoS_vxXox-158" target="8u9ufh7_MEULoS_vxXox-155">
          <mxGeometry relative="1" as="geometry" />
        </mxCell>
        <mxCell id="8u9ufh7_MEULoS_vxXox-157" value="&lt;font style=&quot;font-size: 40px;&quot;&gt;S2&lt;/font&gt;" style="edgeLabel;html=1;align=center;verticalAlign=middle;resizable=0;points=[];labelBorderColor=none;fontColor=#000000;" vertex="1" connectable="0" parent="8u9ufh7_MEULoS_vxXox-156">
          <mxGeometry x="0.1492" relative="1" as="geometry">
            <mxPoint x="-12" y="35" as="offset" />
          </mxGeometry>
        </mxCell>
        <mxCell id="8u9ufh7_MEULoS_vxXox-158" value="LLI" style="rounded=0;whiteSpace=wrap;html=1;fontSize=40;movable=1;resizable=1;rotatable=1;deletable=1;editable=1;locked=0;connectable=1;container=0;labelBorderColor=none;fontColor=#000000;" vertex="1" parent="1">
          <mxGeometry x="-91.17999999999995" y="2740" width="82.11" height="260" as="geometry" />
        </mxCell>
        <mxCell id="8u9ufh7_MEULoS_vxXox-159" value="" style="shape=flexArrow;endArrow=classic;startArrow=classic;html=1;rounded=0;exitX=1;exitY=0.5;exitDx=0;exitDy=0;entryX=1;entryY=0.5;entryDx=0;entryDy=0;labelBorderColor=none;fontColor=#000000;" edge="1" parent="1" source="8u9ufh7_MEULoS_vxXox-146" target="8u9ufh7_MEULoS_vxXox-148">
          <mxGeometry width="100" height="100" relative="1" as="geometry">
            <mxPoint x="-103" y="2710" as="sourcePoint" />
            <mxPoint x="-3" y="2610" as="targetPoint" />
            <Array as="points">
              <mxPoint x="-333" y="3250" />
              <mxPoint x="-333" y="3190" />
              <mxPoint x="-333" y="3140" />
            </Array>
          </mxGeometry>
        </mxCell>
        <mxCell id="8u9ufh7_MEULoS_vxXox-160" value="&lt;font style=&quot;&quot;&gt;&lt;font style=&quot;font-size: 40px;&quot;&gt;S1&lt;/font&gt;&lt;br&gt;&lt;/font&gt;" style="edgeLabel;html=1;align=center;verticalAlign=middle;resizable=0;points=[];container=0;labelBorderColor=none;fontColor=#000000;" vertex="1" connectable="0" parent="1">
          <mxGeometry x="90" y="2910.5004672113073" as="geometry">
            <mxPoint x="-469" y="147" as="offset" />
          </mxGeometry>
        </mxCell>
        <mxCell id="8u9ufh7_MEULoS_vxXox-161" style="edgeStyle=orthogonalEdgeStyle;rounded=0;orthogonalLoop=1;jettySize=auto;html=1;exitX=0.75;exitY=1;exitDx=0;exitDy=0;entryX=0.5;entryY=0;entryDx=0;entryDy=0;strokeWidth=5;labelBorderColor=none;fontColor=#000000;" edge="1" parent="1" source="8u9ufh7_MEULoS_vxXox-162" target="8u9ufh7_MEULoS_vxXox-166">
          <mxGeometry relative="1" as="geometry">
            <mxPoint x="410.33333333333303" y="3070" as="targetPoint" />
          </mxGeometry>
        </mxCell>
        <mxCell id="8u9ufh7_MEULoS_vxXox-162" value="LLIILLIII" style="rounded=1;whiteSpace=wrap;html=1;fontSize=40;movable=1;resizable=1;rotatable=1;deletable=1;editable=1;locked=0;connectable=1;container=0;fillColor=#008a00;fontColor=#000000;strokeColor=#005700;arcSize=50;labelBorderColor=none;" vertex="1" parent="1">
          <mxGeometry x="264.00147902869776" y="2775" width="193.92494481236204" height="60" as="geometry" />
        </mxCell>
        <mxCell id="8u9ufh7_MEULoS_vxXox-163" value="HL" style="rounded=1;whiteSpace=wrap;html=1;fontSize=40;movable=1;resizable=1;rotatable=1;deletable=1;editable=1;locked=0;connectable=1;container=0;fillColor=#008a00;fontColor=#000000;strokeColor=#005700;arcSize=50;labelBorderColor=none;" vertex="1" parent="1">
          <mxGeometry x="264" y="2630" width="152.12" height="60" as="geometry" />
        </mxCell>
        <mxCell id="8u9ufh7_MEULoS_vxXox-164" value="" style="shape=flexArrow;endArrow=classic;html=1;rounded=0;exitX=1;exitY=0.5;exitDx=0;exitDy=0;entryX=1;entryY=0.5;entryDx=0;entryDy=0;fillColor=#a0522d;strokeColor=#6D1F00;strokeWidth=5;labelBorderColor=none;fontColor=#000000;" edge="1" parent="1" source="8u9ufh7_MEULoS_vxXox-163" target="8u9ufh7_MEULoS_vxXox-162">
          <mxGeometry width="50" height="50" relative="1" as="geometry">
            <mxPoint x="100" y="3010" as="sourcePoint" />
            <mxPoint x="150" y="2960" as="targetPoint" />
            <Array as="points">
              <mxPoint x="520" y="2660" />
              <mxPoint x="520" y="2805" />
            </Array>
          </mxGeometry>
        </mxCell>
        <mxCell id="8u9ufh7_MEULoS_vxXox-165" value="" style="shape=flexArrow;endArrow=classic;html=1;rounded=0;exitX=1;exitY=0.75;exitDx=0;exitDy=0;entryX=0.25;entryY=1;entryDx=0;entryDy=0;fillColor=#a0522d;strokeColor=#6D1F00;strokeWidth=5;labelBorderColor=none;fontColor=#000000;" edge="1" parent="1" source="8u9ufh7_MEULoS_vxXox-158" target="8u9ufh7_MEULoS_vxXox-162">
          <mxGeometry width="50" height="50" relative="1" as="geometry">
            <mxPoint x="110" y="2960" as="sourcePoint" />
            <mxPoint x="160" y="2910" as="targetPoint" />
            <Array as="points">
              <mxPoint x="312" y="2935" />
            </Array>
          </mxGeometry>
        </mxCell>
        <mxCell id="8u9ufh7_MEULoS_vxXox-166" value="LLIILLIII" style="rounded=0;whiteSpace=wrap;html=1;fontSize=40;movable=1;resizable=1;rotatable=1;deletable=1;editable=1;locked=0;connectable=1;container=0;arcSize=50;labelBorderColor=none;fontColor=#000000;" vertex="1" parent="1">
          <mxGeometry x="328" y="2990" width="163.93" height="101" as="geometry" />
        </mxCell>
        <mxCell id="8u9ufh7_MEULoS_vxXox-202" value="Middle" style="rounded=0;whiteSpace=wrap;html=1;fontSize=58;horizontal=0;movable=1;resizable=1;rotatable=1;deletable=1;editable=1;locked=0;connectable=1;container=0;labelBorderColor=none;fontColor=#000000;" vertex="1" parent="1">
          <mxGeometry x="880" y="2760" width="158" height="280" as="geometry" />
        </mxCell>
        <mxCell id="8u9ufh7_MEULoS_vxXox-203" value="Surface" style="rounded=0;whiteSpace=wrap;fontSize=58;horizontal=0;movable=1;resizable=1;rotatable=1;deletable=1;editable=1;locked=0;connectable=1;container=0;labelBorderColor=none;fontColor=#000000;" vertex="1" parent="1">
          <mxGeometry x="880" y="2480" width="158" height="280" as="geometry" />
        </mxCell>
        <mxCell id="8u9ufh7_MEULoS_vxXox-204" value="Deep" style="rounded=0;whiteSpace=wrap;fontSize=58;horizontal=0;movable=1;resizable=1;rotatable=1;deletable=1;editable=1;locked=0;connectable=1;container=0;labelBorderColor=none;fontColor=#000000;" vertex="1" parent="1">
          <mxGeometry x="880" y="3040" width="158" height="200" as="geometry" />
        </mxCell>
        <mxCell id="8u9ufh7_MEULoS_vxXox-205" value="sediment" style="rounded=0;whiteSpace=wrap;fontSize=24;horizontal=1;movable=1;resizable=1;rotatable=1;deletable=1;editable=1;locked=0;connectable=1;container=0;labelBorderColor=none;fontColor=#000000;" vertex="1" parent="1">
          <mxGeometry x="880" y="3240" width="158" height="80" as="geometry" />
        </mxCell>
        <mxCell id="8u9ufh7_MEULoS_vxXox-207" style="edgeStyle=orthogonalEdgeStyle;rounded=0;orthogonalLoop=1;jettySize=auto;html=1;exitX=0.5;exitY=0;exitDx=0;exitDy=0;entryX=0;entryY=0.5;entryDx=0;entryDy=0;strokeWidth=5;labelBorderColor=none;fontColor=#000000;" edge="1" parent="1" source="8u9ufh7_MEULoS_vxXox-209" target="8u9ufh7_MEULoS_vxXox-212">
          <mxGeometry relative="1" as="geometry" />
        </mxCell>
        <mxCell id="8u9ufh7_MEULoS_vxXox-208" style="edgeStyle=orthogonalEdgeStyle;rounded=0;orthogonalLoop=1;jettySize=auto;html=1;exitX=1;exitY=0.5;exitDx=0;exitDy=0;entryX=0;entryY=0.5;entryDx=0;entryDy=0;strokeWidth=5;labelBorderColor=none;fontColor=#000000;" edge="1" parent="1" source="8u9ufh7_MEULoS_vxXox-209" target="8u9ufh7_MEULoS_vxXox-214">
          <mxGeometry relative="1" as="geometry" />
        </mxCell>
        <mxCell id="8u9ufh7_MEULoS_vxXox-209" value="HL" style="rounded=1;whiteSpace=wrap;html=1;fontSize=40;movable=1;resizable=1;rotatable=1;deletable=1;editable=1;locked=0;connectable=1;container=0;fillColor=#008a00;fontColor=#000000;strokeColor=#005700;arcSize=50;labelBorderColor=none;" vertex="1" parent="1">
          <mxGeometry x="1060" y="2660" width="152.12" height="60" as="geometry" />
        </mxCell>
        <mxCell id="8u9ufh7_MEULoS_vxXox-210" style="edgeStyle=orthogonalEdgeStyle;rounded=0;orthogonalLoop=1;jettySize=auto;html=1;exitX=1;exitY=0.5;exitDx=0;exitDy=0;entryX=0;entryY=0.5;entryDx=0;entryDy=0;strokeWidth=5;labelBorderColor=none;fontColor=#000000;" edge="1" parent="1" source="8u9ufh7_MEULoS_vxXox-212" target="8u9ufh7_MEULoS_vxXox-218">
          <mxGeometry relative="1" as="geometry" />
        </mxCell>
        <mxCell id="8u9ufh7_MEULoS_vxXox-211" style="edgeStyle=orthogonalEdgeStyle;rounded=0;orthogonalLoop=1;jettySize=auto;html=1;exitX=1;exitY=0.5;exitDx=0;exitDy=0;entryX=0;entryY=0.5;entryDx=0;entryDy=0;strokeWidth=5;labelBorderColor=none;fontColor=#000000;" edge="1" parent="1" source="8u9ufh7_MEULoS_vxXox-212" target="8u9ufh7_MEULoS_vxXox-215">
          <mxGeometry relative="1" as="geometry" />
        </mxCell>
        <mxCell id="8u9ufh7_MEULoS_vxXox-212" value="HLI、HLII、HLVI" style="rounded=1;whiteSpace=wrap;html=1;fontSize=40;movable=1;resizable=1;rotatable=1;deletable=1;editable=1;locked=0;connectable=1;container=0;arcSize=50;fillColor=#008a00;fontColor=#000000;strokeColor=#005700;labelBorderColor=none;" vertex="1" parent="1">
          <mxGeometry x="1260" y="2560" width="370" height="60" as="geometry" />
        </mxCell>
        <mxCell id="8u9ufh7_MEULoS_vxXox-213" style="edgeStyle=orthogonalEdgeStyle;rounded=0;orthogonalLoop=1;jettySize=auto;html=1;exitX=0.5;exitY=1;exitDx=0;exitDy=0;entryX=0;entryY=0.5;entryDx=0;entryDy=0;strokeWidth=5;labelBorderColor=none;fontColor=#000000;" edge="1" parent="1" source="8u9ufh7_MEULoS_vxXox-214" target="8u9ufh7_MEULoS_vxXox-226">
          <mxGeometry relative="1" as="geometry" />
        </mxCell>
        <mxCell id="8u9ufh7_MEULoS_vxXox-214" value="HLIII/IV/V" style="rounded=1;whiteSpace=wrap;html=1;fontSize=40;movable=1;resizable=1;rotatable=1;deletable=1;editable=1;locked=0;connectable=1;container=0;arcSize=50;fillColor=#008a00;fontColor=#000000;strokeColor=#005700;labelBorderColor=none;" vertex="1" parent="1">
          <mxGeometry x="1260" y="2660" width="200" height="60" as="geometry" />
        </mxCell>
        <mxCell id="8u9ufh7_MEULoS_vxXox-215" value="HLI" style="rounded=0;whiteSpace=wrap;html=1;fontSize=40;movable=1;resizable=1;rotatable=1;deletable=1;editable=1;locked=0;connectable=1;container=0;arcSize=50;labelBorderColor=none;fontColor=#000000;" vertex="1" parent="1">
          <mxGeometry x="1700" y="2610" width="163.93" height="60" as="geometry" />
        </mxCell>
        <mxCell id="8u9ufh7_MEULoS_vxXox-216" style="edgeStyle=orthogonalEdgeStyle;rounded=0;orthogonalLoop=1;jettySize=auto;html=1;exitX=1;exitY=0.5;exitDx=0;exitDy=0;entryX=0;entryY=0.5;entryDx=0;entryDy=0;strokeWidth=5;labelBorderColor=none;fontColor=#000000;" edge="1" parent="1" source="8u9ufh7_MEULoS_vxXox-218" target="8u9ufh7_MEULoS_vxXox-219">
          <mxGeometry relative="1" as="geometry" />
        </mxCell>
        <mxCell id="8u9ufh7_MEULoS_vxXox-217" style="edgeStyle=orthogonalEdgeStyle;rounded=0;orthogonalLoop=1;jettySize=auto;html=1;exitX=1;exitY=0.5;exitDx=0;exitDy=0;entryX=0.5;entryY=0;entryDx=0;entryDy=0;strokeWidth=5;labelBorderColor=none;fontColor=#000000;" edge="1" parent="1" source="8u9ufh7_MEULoS_vxXox-218" target="8u9ufh7_MEULoS_vxXox-221">
          <mxGeometry relative="1" as="geometry">
            <Array as="points">
              <mxPoint x="1970" y="2540" />
              <mxPoint x="1970" y="2620" />
              <mxPoint x="2032" y="2620" />
            </Array>
          </mxGeometry>
        </mxCell>
        <mxCell id="8u9ufh7_MEULoS_vxXox-218" value="HLII、HLVI" style="rounded=1;whiteSpace=wrap;html=1;fontSize=40;movable=1;resizable=1;rotatable=1;deletable=1;editable=1;locked=0;connectable=1;container=0;arcSize=50;fillColor=#008a00;fontColor=#000000;strokeColor=#005700;labelBorderColor=none;" vertex="1" parent="1">
          <mxGeometry x="1700" y="2510" width="230" height="60" as="geometry" />
        </mxCell>
        <mxCell id="8u9ufh7_MEULoS_vxXox-219" value="HLII" style="rounded=0;whiteSpace=wrap;html=1;fontSize=40;movable=1;resizable=1;rotatable=1;deletable=1;editable=1;locked=0;connectable=1;container=0;arcSize=50;labelBorderColor=none;fontColor=#000000;" vertex="1" parent="1">
          <mxGeometry x="2030" y="2510" width="163.93" height="60" as="geometry" />
        </mxCell>
        <mxCell id="8u9ufh7_MEULoS_vxXox-220" style="edgeStyle=orthogonalEdgeStyle;rounded=0;orthogonalLoop=1;jettySize=auto;html=1;exitX=0.5;exitY=1;exitDx=0;exitDy=0;entryX=0.5;entryY=0;entryDx=0;entryDy=0;strokeWidth=5;labelBorderColor=none;fontColor=#000000;" edge="1" parent="1" source="8u9ufh7_MEULoS_vxXox-221" target="8u9ufh7_MEULoS_vxXox-227">
          <mxGeometry relative="1" as="geometry" />
        </mxCell>
        <mxCell id="8u9ufh7_MEULoS_vxXox-221" value="HLVI" style="rounded=1;whiteSpace=wrap;html=1;fontSize=40;movable=1;resizable=1;rotatable=1;deletable=1;editable=1;locked=0;connectable=1;container=0;arcSize=50;fillColor=#008a00;fontColor=#000000;strokeColor=#005700;labelBorderColor=none;" vertex="1" parent="1">
          <mxGeometry x="1950" y="2680" width="163.93" height="60" as="geometry" />
        </mxCell>
        <mxCell id="8u9ufh7_MEULoS_vxXox-222" value="" style="shape=flexArrow;endArrow=classic;html=1;rounded=0;exitX=0;exitY=0.5;exitDx=0;exitDy=0;entryX=0.75;entryY=0;entryDx=0;entryDy=0;fillColor=#a0522d;strokeColor=#6D1F00;strokeWidth=5;labelBorderColor=none;fontColor=#000000;" edge="1" parent="1" source="8u9ufh7_MEULoS_vxXox-228" target="8u9ufh7_MEULoS_vxXox-227">
          <mxGeometry width="50" height="50" relative="1" as="geometry">
            <mxPoint x="1870" y="2370" as="sourcePoint" />
            <mxPoint x="1920" y="2320" as="targetPoint" />
            <Array as="points">
              <mxPoint x="2073" y="2910" />
            </Array>
          </mxGeometry>
        </mxCell>
        <mxCell id="8u9ufh7_MEULoS_vxXox-223" value="" style="shape=flexArrow;endArrow=classic;html=1;rounded=0;exitX=0.25;exitY=1;exitDx=0;exitDy=0;entryX=0.75;entryY=0;entryDx=0;entryDy=0;fillColor=#a0522d;strokeColor=#6D1F00;strokeWidth=5;labelBorderColor=none;fontColor=#000000;" edge="1" parent="1" source="8u9ufh7_MEULoS_vxXox-219" target="8u9ufh7_MEULoS_vxXox-221">
          <mxGeometry width="50" height="50" relative="1" as="geometry">
            <mxPoint x="1890" y="2390" as="sourcePoint" />
            <mxPoint x="1940" y="2340" as="targetPoint" />
          </mxGeometry>
        </mxCell>
        <mxCell id="8u9ufh7_MEULoS_vxXox-224" value="" style="shape=flexArrow;endArrow=classic;html=1;rounded=0;exitX=0.25;exitY=1;exitDx=0;exitDy=0;entryX=1;entryY=0.5;entryDx=0;entryDy=0;fillColor=#a0522d;strokeColor=#6D1F00;strokeWidth=5;labelBorderColor=none;fontColor=#000000;" edge="1" parent="1" source="8u9ufh7_MEULoS_vxXox-215" target="8u9ufh7_MEULoS_vxXox-214">
          <mxGeometry width="50" height="50" relative="1" as="geometry">
            <mxPoint x="1900" y="2400" as="sourcePoint" />
            <mxPoint x="1950" y="2350" as="targetPoint" />
            <Array as="points">
              <mxPoint x="1740" y="2690" />
            </Array>
          </mxGeometry>
        </mxCell>
        <mxCell id="8u9ufh7_MEULoS_vxXox-225" value="" style="shape=flexArrow;endArrow=classic;html=1;rounded=0;exitX=0.75;exitY=1;exitDx=0;exitDy=0;entryX=1;entryY=0.5;entryDx=0;entryDy=0;fillColor=#a0522d;strokeColor=#6D1F00;strokeWidth=5;labelBorderColor=none;fontColor=#000000;" edge="1" parent="1" source="8u9ufh7_MEULoS_vxXox-212" target="8u9ufh7_MEULoS_vxXox-214">
          <mxGeometry width="50" height="50" relative="1" as="geometry">
            <mxPoint x="1910" y="2410" as="sourcePoint" />
            <mxPoint x="1960" y="2360" as="targetPoint" />
            <Array as="points">
              <mxPoint x="1537" y="2690" />
            </Array>
          </mxGeometry>
        </mxCell>
        <mxCell id="8u9ufh7_MEULoS_vxXox-226" value="HLIII/IV/V" style="rounded=0;whiteSpace=wrap;html=1;fontSize=40;movable=1;resizable=1;rotatable=1;deletable=1;editable=1;locked=0;connectable=1;container=0;arcSize=50;labelBorderColor=none;fontColor=#000000;" vertex="1" parent="1">
          <mxGeometry x="1460" y="2860" width="200" height="140" as="geometry" />
        </mxCell>
        <mxCell id="8u9ufh7_MEULoS_vxXox-227" value="HLVI" style="rounded=0;whiteSpace=wrap;html=1;fontSize=40;movable=1;resizable=1;rotatable=1;deletable=1;editable=1;locked=0;connectable=1;container=0;arcSize=50;labelBorderColor=none;fontColor=#000000;" vertex="1" parent="1">
          <mxGeometry x="1950" y="3070" width="163.93" height="60" as="geometry" />
        </mxCell>
        <mxCell id="8u9ufh7_MEULoS_vxXox-228" value="LL" style="rounded=0;whiteSpace=wrap;html=1;fontSize=40;movable=1;resizable=1;rotatable=1;deletable=1;editable=1;locked=0;connectable=1;container=0;arcSize=50;dashed=1;strokeWidth=5;labelBorderColor=none;fontColor=#000000;" vertex="1" parent="1">
          <mxGeometry x="2140" y="2880" width="163.93" height="60" as="geometry" />
        </mxCell>
        <mxCell id="8u9ufh7_MEULoS_vxXox-238" value="" style="group;labelBorderColor=none;fontColor=#000000;" vertex="1" connectable="0" parent="1">
          <mxGeometry x="1035" y="2480" width="1280" height="840" as="geometry" />
        </mxCell>
        <mxCell id="8u9ufh7_MEULoS_vxXox-239" value="" style="endArrow=none;dashed=1;html=1;rounded=0;strokeWidth=9;movable=1;resizable=1;rotatable=1;deletable=1;editable=1;locked=0;connectable=1;labelBorderColor=none;fontColor=#000000;" edge="1" parent="8u9ufh7_MEULoS_vxXox-238">
          <mxGeometry width="50" height="50" relative="1" as="geometry">
            <mxPoint as="sourcePoint" />
            <mxPoint x="1275.3488372093022" as="targetPoint" />
          </mxGeometry>
        </mxCell>
        <mxCell id="8u9ufh7_MEULoS_vxXox-240" value="" style="endArrow=none;dashed=1;html=1;rounded=0;strokeWidth=9;movable=1;resizable=1;rotatable=1;deletable=1;editable=1;locked=0;connectable=1;labelBorderColor=none;fontColor=#000000;" edge="1" parent="8u9ufh7_MEULoS_vxXox-238">
          <mxGeometry width="50" height="50" relative="1" as="geometry">
            <mxPoint y="280" as="sourcePoint" />
            <mxPoint x="1275.3488372093022" y="280" as="targetPoint" />
          </mxGeometry>
        </mxCell>
        <mxCell id="8u9ufh7_MEULoS_vxXox-241" value="" style="endArrow=none;dashed=1;html=1;rounded=0;strokeWidth=9;movable=1;resizable=1;rotatable=1;deletable=1;editable=1;locked=0;connectable=1;labelBorderColor=none;fontColor=#000000;" edge="1" parent="8u9ufh7_MEULoS_vxXox-238">
          <mxGeometry x="-0.117" y="160" width="50" height="50" relative="1" as="geometry">
            <mxPoint y="560" as="sourcePoint" />
            <mxPoint x="1275.3488372093022" y="560" as="targetPoint" />
            <mxPoint as="offset" />
          </mxGeometry>
        </mxCell>
        <mxCell id="8u9ufh7_MEULoS_vxXox-242" value="" style="endArrow=none;dashed=1;html=1;rounded=0;strokeWidth=9;movable=1;resizable=1;rotatable=1;deletable=1;editable=1;locked=0;connectable=1;labelBorderColor=none;fontColor=#000000;" edge="1" parent="8u9ufh7_MEULoS_vxXox-238">
          <mxGeometry width="50" height="50" relative="1" as="geometry">
            <mxPoint y="840" as="sourcePoint" />
            <mxPoint x="1280" y="840" as="targetPoint" />
          </mxGeometry>
        </mxCell>
        <mxCell id="8u9ufh7_MEULoS_vxXox-243" value="" style="endArrow=none;dashed=1;html=1;rounded=0;exitX=1;exitY=1;exitDx=0;exitDy=0;strokeWidth=10;movable=1;resizable=1;rotatable=1;deletable=1;editable=1;locked=0;connectable=1;labelBorderColor=none;fontColor=#000000;" edge="1" parent="8u9ufh7_MEULoS_vxXox-238">
          <mxGeometry width="50" height="50" relative="1" as="geometry">
            <mxPoint y="760" as="sourcePoint" />
            <mxPoint x="1280" y="760" as="targetPoint" />
          </mxGeometry>
        </mxCell>
        <mxCell id="8u9ufh7_MEULoS_vxXox-244" value="A1" style="rounded=0;whiteSpace=wrap;html=1;fontSize=40;movable=1;resizable=1;rotatable=1;deletable=1;editable=1;locked=0;connectable=1;container=0;labelBorderColor=none;fontColor=#000000;" vertex="1" parent="8u9ufh7_MEULoS_vxXox-238">
          <mxGeometry x="270" y="540" width="60.45" height="120" as="geometry" />
        </mxCell>
        <mxCell id="8u9ufh7_MEULoS_vxXox-245" value="LLother" style="rounded=0;whiteSpace=wrap;html=1;fontSize=40;movable=1;resizable=1;rotatable=1;deletable=1;editable=1;locked=0;connectable=1;container=0;labelBorderColor=none;fontColor=#000000;" vertex="1" parent="8u9ufh7_MEULoS_vxXox-238">
          <mxGeometry x="370.00147902869776" y="650" width="193.92494481236204" height="60" as="geometry" />
        </mxCell>
        <mxCell id="8u9ufh7_MEULoS_vxXox-246" style="edgeStyle=orthogonalEdgeStyle;rounded=0;orthogonalLoop=1;jettySize=auto;html=1;exitX=0.5;exitY=1;exitDx=0;exitDy=0;entryX=0;entryY=0.5;entryDx=0;entryDy=0;strokeWidth=5;labelBorderColor=none;fontColor=#000000;" edge="1" parent="8u9ufh7_MEULoS_vxXox-238" source="8u9ufh7_MEULoS_vxXox-244" target="8u9ufh7_MEULoS_vxXox-245">
          <mxGeometry relative="1" as="geometry" />
        </mxCell>
        <mxCell id="8u9ufh7_MEULoS_vxXox-247" value="" style="endArrow=none;html=1;rounded=0;fontSize=20;strokeWidth=20;movable=1;resizable=1;rotatable=1;deletable=1;editable=1;locked=0;connectable=1;labelBorderColor=none;fontColor=#000000;" edge="1" parent="8u9ufh7_MEULoS_vxXox-238">
          <mxGeometry width="50" height="50" relative="1" as="geometry">
            <mxPoint x="1295" y="840" as="sourcePoint" />
            <mxPoint x="1295" as="targetPoint" />
          </mxGeometry>
        </mxCell>
      </root>
    </mxGraphModel>
  </diagram>
</mxfile>
